<?xml version="1.0" encoding="UTF-8"?>
<svg width="1252px" height="305px" viewBox="0 0 1252 305" version="1.1" xmlns="http://www.w3.org/2000/svg" xmlns:xlink="http://www.w3.org/1999/xlink">
    <!-- Generator: Sketch 63.1 (92452) - https://sketch.com -->
    <title>未命名</title>
    <desc>Created with Sketch.</desc>
    <g id="页面-1" stroke="none" stroke-width="1" fill="none" fill-rule="evenodd">
        <path d="M64.5,42.0082813 L1.4127549,221 L127.587245,221 L64.5,42.0082813 Z" id="三角形" stroke="#000000" stroke-width="2"></path>
        <path d="M245.5,99.0643126 L203.403156,221 L287.596844,221 L245.5,99.0643126 Z" id="三角形" stroke="#000000" stroke-width="2"></path>
        <path d="M389.5,99.0643126 L347.403156,221 L431.596844,221 L389.5,99.0643126 Z" id="三角形" stroke="#000000" stroke-width="2"></path>
        <g id="编组" transform="translate(64.000000, 169.000000)">
            <circle id="椭圆形" stroke="#000000" stroke-width="2" fill="#FFFFFF" cx="20" cy="20" r="19"></circle>
            <text id="t" font-family="FiraCode-Light_Retina, Fira Code" font-size="20" font-weight="300" fill="#000000">
                <tspan x="14" y="27">t</tspan>
            </text>
        </g>
        <g id="编组" transform="translate(295.000000, 19.000000)">
            <circle id="椭圆形" stroke="#000000" stroke-width="2" fill="#FFFFFF" cx="20" cy="20" r="19"></circle>
            <text id="t" font-family="FiraCode-Light_Retina, Fira Code" font-size="20" font-weight="300" fill="#000000">
                <tspan x="14" y="27">t</tspan>
            </text>
        </g>
        <text id="search(t)" font-family="FiraCode-Light_Retina, Fira Code" font-size="20" font-weight="300" fill="#000000">
            <tspan x="11" y="27">search(t)</tspan>
        </text>
        <text id="(a)" font-family="FiraCode-Light_Retina, Fira Code" font-size="20" font-weight="300" fill="#000000">
            <tspan x="46" y="273">(a)</tspan>
        </text>
        <text id="Splay" font-family="FiraCode-Light_Retina, Fira Code" font-size="20" font-weight="300" fill="#000000">
            <tspan x="160" y="299">Splay</tspan>
        </text>
        <text id="(b)" font-family="FiraCode-Light_Retina, Fira Code" font-size="20" font-weight="300" fill="#000000">
            <tspan x="300" y="273">(b)</tspan>
        </text>
        <text id="(c)" font-family="FiraCode-Light_Retina, Fira Code" font-size="20" font-weight="300" fill="#000000">
            <tspan x="573" y="273">(c)</tspan>
        </text>
        <text id="(d)" font-family="FiraCode-Light_Retina, Fira Code" font-size="20" font-weight="300" fill="#000000">
            <tspan x="846" y="273">(d)</tspan>
        </text>
        <text id="(e)" font-family="FiraCode-Light_Retina, Fira Code" font-size="20" font-weight="300" fill="#000000">
            <tspan x="1119" y="273">(e)</tspan>
        </text>
        <text id="v&gt;t" font-family="FiraCode-Light_Retina, Fira Code" font-size="20" font-weight="300" fill="#000000">
            <tspan x="524" y="20">v&gt;t</tspan>
        </text>
        <text id="&lt;t" font-family="FiraCode-Light_Retina, Fira Code" font-size="20" font-weight="300" fill="#000000">
            <tspan x="234" y="196">&lt;t</tspan>
        </text>
        <text id="&gt;t" font-family="FiraCode-Light_Retina, Fira Code" font-size="20" font-weight="300" fill="#000000">
            <tspan x="378" y="196">&gt;t</tspan>
        </text>
        <path id="路径" d="M84.4130776,156.678554 C84.8842093,156.881126 85.1200211,157.40273 84.9766378,157.882442 L84.9367526,157.992237 L79.4982669,170.64077 C79.2073563,171.317353 78.3232868,171.447564 77.8449546,170.9248 L77.7649582,170.825747 L69.7796694,159.609791 C69.4593542,159.159884 69.5644095,158.535495 70.0143169,158.21518 C70.429616,157.919505 70.9935856,157.986275 71.3298293,158.352161 L71.4089282,158.449828 L77.18,166.554 L76.7396617,162.428557 C76.681055,161.879391 77.0787322,161.386694 77.6278986,161.328087 C78.1378388,161.273667 78.5990889,161.612674 78.7093039,162.101075 L78.7283691,162.216324 L79.169,166.343 L83.0993941,157.202229 C83.3175489,156.694856 83.905705,156.460399 84.4130776,156.678554 Z M77.4359023,150.168831 L77.4549675,150.28408 L78.0916683,156.250202 C78.150275,156.799368 77.7525978,157.292066 77.2034314,157.350672 C76.6934912,157.405093 76.2322411,157.066085 76.1220262,156.577684 L76.102961,156.462435 L75.4662602,150.496313 C75.4076535,149.947147 75.8053307,149.45445 76.3544971,149.395843 C76.8644373,149.341422 77.3256874,149.68043 77.4359023,150.168831 Z M76.1625008,138.236587 L76.181566,138.351836 L76.8182668,144.317958 C76.8768735,144.867124 76.4791963,145.359822 75.9300299,145.418428 C75.4200897,145.472849 74.9588396,145.133841 74.8486246,144.64544 L74.8295594,144.530191 L74.1928587,138.564069 C74.134252,138.014903 74.5319292,137.522206 75.0810955,137.463599 C75.5910357,137.409178 76.0522859,137.748186 76.1625008,138.236587 Z M74.8890993,126.304343 L74.9081645,126.419592 L75.5448652,132.385714 C75.6034719,132.93488 75.2057947,133.427578 74.6566284,133.486184 C74.1466882,133.540605 73.685438,133.201597 73.5752231,132.713196 L73.5561579,132.597947 L72.9194571,126.631825 C72.8608504,126.082659 73.2585276,125.589961 73.807694,125.531355 C74.3176342,125.476934 74.7788843,125.815942 74.8890993,126.304343 Z M73.6156977,114.372099 L73.6347629,114.487348 L74.2714637,120.45347 C74.3300704,121.002636 73.9323932,121.495333 73.3832268,121.55394 C72.8732866,121.608361 72.4120365,121.269353 72.3018215,120.780952 L72.2827563,120.665703 L71.6460556,114.699581 C71.5874489,114.150415 71.9851261,113.657717 72.5342925,113.599111 C73.0442327,113.54469 73.5054828,113.883698 73.6156977,114.372099 Z M72.3422962,102.439855 L72.3613614,102.555104 L72.9980621,108.521226 C73.0566688,109.070392 72.6589916,109.563089 72.1098253,109.621696 C71.5998851,109.676117 71.1386349,109.337109 71.02842,108.848708 L71.0093548,108.733459 L70.372654,102.767337 C70.3140473,102.218171 70.7117245,101.725473 71.2608909,101.666867 C71.7708311,101.612446 72.2320812,101.951454 72.3422962,102.439855 Z M71.0688946,90.5076108 L71.0879598,90.6228595 L71.7246606,96.5889815 C71.7832673,97.1381479 71.3855901,97.6308453 70.8364237,97.689452 C70.3264835,97.7438725 69.8652334,97.4048645 69.7550185,96.9164638 L69.7359533,96.8012151 L69.0992525,90.8350931 C69.0406458,90.2859267 69.438323,89.7932293 69.9874894,89.7346226 C70.4974296,89.6802021 70.9586797,90.0192101 71.0688946,90.5076108 Z M69.7954931,78.5753667 L69.8145583,78.6906154 L70.4512591,84.6567374 C70.5098658,85.2059038 70.1121886,85.6986012 69.5630222,85.7572079 C69.053082,85.8116284 68.5918319,85.4726205 68.4816169,84.9842198 L68.4625517,84.868971 L67.825851,78.902849 C67.7672443,78.3536826 68.1649215,77.8609852 68.7140878,77.8023785 C69.224028,77.747958 69.6852782,78.086966 69.7954931,78.5753667 Z M68.5220915,66.6431226 L68.5411568,66.7583713 L69.1778575,72.7244934 C69.2364642,73.2736597 68.838787,73.7663572 68.2896206,73.8249638 C67.7796804,73.8793843 67.3184303,73.5403764 67.2082154,73.0519757 L67.1891502,72.936727 L66.5524494,66.9706049 C66.4938427,66.4214386 66.8915199,65.9287412 67.4406863,65.8701345 C67.9506265,65.815714 68.4118766,66.1547219 68.5220915,66.6431226 Z M67.24869,54.7108786 L67.2677552,54.8261273 L67.904456,60.7922493 C67.9630627,61.3414157 67.5653855,61.8341131 67.0162191,61.8927198 C66.5062789,61.9471403 66.0450288,61.6081323 65.9348138,61.1197316 L65.9157486,61.0044829 L65.2790479,55.0383609 C65.2204412,54.4891945 65.6181184,53.9964971 66.1672847,53.9378904 C66.6772249,53.8834699 67.1384751,54.2224779 67.24869,54.7108786 Z M65.9752885,42.7786345 L65.9943537,42.8938832 L66.6310544,48.8600052 C66.6896611,49.4091716 66.2919839,49.901869 65.7428176,49.9604757 C65.2328774,50.0148962 64.7716272,49.6758882 64.6614123,49.1874875 L64.6423471,49.0722388 L64.0056463,43.1061168 C63.9470396,42.5569504 64.3447168,42.064253 64.8938832,42.0056463 C65.4038234,41.9512258 65.8650735,42.2902338 65.9752885,42.7786345 Z" fill="#000000" fill-rule="nonzero"></path>
        <path id="路径" d="M271.135319,258.327113 L271.240261,258.378424 L283.240261,265.128424 C283.882154,265.489489 283.917815,266.382385 283.347243,266.802542 L283.240261,266.871576 L271.240261,273.621576 C270.758903,273.892339 270.149188,273.721619 269.878424,273.240261 C269.627001,272.793286 269.756245,272.235636 270.161393,271.941463 L270.259739,271.878424 L278.932,267 L278,267 C277.447715,267 277,266.552285 277,266 C277,265.487164 277.38604,265.064493 277.883379,265.006728 L278,265 L278.932,265 L270.259739,260.121576 C269.812764,259.870152 269.633634,259.326469 269.827113,258.864681 L269.878424,258.759739 C270.129848,258.312764 270.673531,258.133634 271.135319,258.327113 Z M104,265 C104.552285,265 105,265.447715 105,266 C105,266.512836 104.61396,266.935507 104.116621,266.993272 L104,267 L98,267 C97.4477153,267 97,266.552285 97,266 C97,265.487164 97.3860402,265.064493 97.8833789,265.006728 L98,265 L104,265 Z M116,265 C116.552285,265 117,265.447715 117,266 C117,266.512836 116.61396,266.935507 116.116621,266.993272 L116,267 L110,267 C109.447715,267 109,266.552285 109,266 C109,265.487164 109.38604,265.064493 109.883379,265.006728 L110,265 L116,265 Z M128,265 C128.552285,265 129,265.447715 129,266 C129,266.512836 128.61396,266.935507 128.116621,266.993272 L128,267 L122,267 C121.447715,267 121,266.552285 121,266 C121,265.487164 121.38604,265.064493 121.883379,265.006728 L122,265 L128,265 Z M140,265 C140.552285,265 141,265.447715 141,266 C141,266.512836 140.61396,266.935507 140.116621,266.993272 L140,267 L134,267 C133.447715,267 133,266.552285 133,266 C133,265.487164 133.38604,265.064493 133.883379,265.006728 L134,265 L140,265 Z M152,265 C152.552285,265 153,265.447715 153,266 C153,266.512836 152.61396,266.935507 152.116621,266.993272 L152,267 L146,267 C145.447715,267 145,266.552285 145,266 C145,265.487164 145.38604,265.064493 145.883379,265.006728 L146,265 L152,265 Z M164,265 C164.552285,265 165,265.447715 165,266 C165,266.512836 164.61396,266.935507 164.116621,266.993272 L164,267 L158,267 C157.447715,267 157,266.552285 157,266 C157,265.487164 157.38604,265.064493 157.883379,265.006728 L158,265 L164,265 Z M176,265 C176.552285,265 177,265.447715 177,266 C177,266.512836 176.61396,266.935507 176.116621,266.993272 L176,267 L170,267 C169.447715,267 169,266.552285 169,266 C169,265.487164 169.38604,265.064493 169.883379,265.006728 L170,265 L176,265 Z M188,265 C188.552285,265 189,265.447715 189,266 C189,266.512836 188.61396,266.935507 188.116621,266.993272 L188,267 L182,267 C181.447715,267 181,266.552285 181,266 C181,265.487164 181.38604,265.064493 181.883379,265.006728 L182,265 L188,265 Z M200,265 C200.552285,265 201,265.447715 201,266 C201,266.512836 200.61396,266.935507 200.116621,266.993272 L200,267 L194,267 C193.447715,267 193,266.552285 193,266 C193,265.487164 193.38604,265.064493 193.883379,265.006728 L194,265 L200,265 Z M212,265 C212.552285,265 213,265.447715 213,266 C213,266.512836 212.61396,266.935507 212.116621,266.993272 L212,267 L206,267 C205.447715,267 205,266.552285 205,266 C205,265.487164 205.38604,265.064493 205.883379,265.006728 L206,265 L212,265 Z M224,265 C224.552285,265 225,265.447715 225,266 C225,266.512836 224.61396,266.935507 224.116621,266.993272 L224,267 L218,267 C217.447715,267 217,266.552285 217,266 C217,265.487164 217.38604,265.064493 217.883379,265.006728 L218,265 L224,265 Z M236,265 C236.552285,265 237,265.447715 237,266 C237,266.512836 236.61396,266.935507 236.116621,266.993272 L236,267 L230,267 C229.447715,267 229,266.552285 229,266 C229,265.487164 229.38604,265.064493 229.883379,265.006728 L230,265 L236,265 Z M248,265 C248.552285,265 249,265.447715 249,266 C249,266.512836 248.61396,266.935507 248.116621,266.993272 L248,267 L242,267 C241.447715,267 241,266.552285 241,266 C241,265.487164 241.38604,265.064493 241.883379,265.006728 L242,265 L248,265 Z M260,265 C260.552285,265 261,265.447715 261,266 C261,266.512836 260.61396,266.935507 260.116621,266.993272 L260,267 L254,267 C253.447715,267 253,266.552285 253,266 C253,265.487164 253.38604,265.064493 253.883379,265.006728 L254,265 L260,265 Z M272,265 C272.552285,265 273,265.447715 273,266 C273,266.512836 272.61396,266.935507 272.116621,266.993272 L272,267 L266,267 C265.447715,267 265,266.552285 265,266 C265,265.487164 265.38604,265.064493 265.883379,265.006728 L266,265 L272,265 Z" fill="#000000" fill-rule="nonzero"></path>
        <text id="Compare" font-family="FiraCode-Light_Retina, Fira Code" font-size="20" font-weight="300" fill="#000000">
            <tspan x="411" y="299">Compare</tspan>
        </text>
        <path id="路径" d="M543.125578,258.340925 L543.230586,258.392102 L555.239153,265.126849 C555.881504,265.487098 555.9183,266.379948 555.348262,266.800829 L555.241368,266.869999 L543.249954,273.635241 C542.768941,273.906616 542.159009,273.736671 541.887634,273.255658 C541.635643,272.809002 541.764178,272.251188 542.168952,271.956501 L542.267218,271.893337 L550.933,267.004 L549.251116,267.006035 C548.698831,267.006737 548.250548,266.559591 548.249846,266.007306 C548.249194,265.494471 548.634697,265.071309 549.131962,265.012912 L549.248574,265.006037 L550.932,265.004 L542.252279,260.136498 C541.804985,259.885643 541.625164,259.342188 541.818057,258.880154 L541.869234,258.775147 C542.12009,258.327853 542.663544,258.148032 543.125578,258.340925 Z M363.248725,265.242377 C363.801009,265.241675 364.249293,265.688821 364.249994,266.241105 C364.250646,266.753941 363.865143,267.177102 363.367878,267.235499 L363.251266,267.242375 L357.251271,267.249999 C356.698986,267.250701 356.250703,266.803555 356.250001,266.251271 C356.249349,265.738435 356.634852,265.315274 357.132117,265.256877 L357.248729,265.250001 L363.248725,265.242377 Z M375.248715,265.227129 C375.800999,265.226427 376.249283,265.673573 376.249985,266.225858 C376.250636,266.738693 375.865133,267.161855 375.367869,267.220252 L375.251256,267.227128 L369.251261,267.234751 C368.698977,267.235453 368.250693,266.788307 368.249991,266.236023 C368.249339,265.723187 368.634842,265.300026 369.132107,265.241629 L369.24872,265.234753 L375.248715,265.227129 Z M387.248705,265.211881 C387.800989,265.21118 388.249273,265.658326 388.249975,266.21061 C388.250627,266.723445 387.865124,267.146607 387.367859,267.205004 L387.251246,267.21188 L381.251251,267.219504 C380.698967,267.220205 380.250683,266.773059 380.249981,266.220775 C380.24933,265.70794 380.634833,265.284778 381.132097,265.226381 L381.24871,265.219505 L387.248705,265.211881 Z M399.248695,265.196634 C399.80098,265.195932 400.249264,265.643078 400.249965,266.195362 C400.250617,266.708198 399.865114,267.131359 399.367849,267.189756 L399.251237,267.196632 L393.251242,267.204256 C392.698957,267.204958 392.250674,266.757812 392.249972,266.205527 C392.24932,265.692692 392.634823,265.26953 393.132088,265.211133 L393.2487,265.204258 L399.248695,265.196634 Z M411.248686,265.181386 C411.80097,265.180684 412.249254,265.62783 412.249956,266.180114 C412.250607,266.69295 411.865104,267.116111 411.36784,267.174508 L411.251227,267.181384 L405.251232,267.189008 C404.698948,267.18971 404.250664,266.742564 404.249962,266.19028 C404.24931,265.677444 404.634813,265.254283 405.132078,265.195886 L405.248691,265.18901 L411.248686,265.181386 Z M423.248676,265.166138 C423.80096,265.165436 424.249244,265.612582 424.249946,266.164867 C424.250598,266.677702 423.865095,267.100864 423.36783,267.159261 L423.251217,267.166136 L417.251222,267.17376 C416.698938,267.174462 416.250654,266.727316 416.249952,266.175032 C416.249301,265.662196 416.634804,265.239035 417.132068,265.180638 L417.248681,265.173762 L423.248676,265.166138 Z M435.248666,265.15089 C435.800951,265.150189 436.249234,265.597335 436.249936,266.149619 C436.250588,266.662454 435.865085,267.085616 435.36782,267.144013 L435.251208,267.150889 L429.251213,267.158513 C428.698928,267.159214 428.250644,266.712068 428.249943,266.159784 C428.249291,265.646949 428.634794,265.223787 429.132059,265.16539 L429.248671,265.158514 L435.248666,265.15089 Z M447.248657,265.135643 C447.800941,265.134941 448.249225,265.582087 448.249927,266.134371 C448.250578,266.647207 447.865075,267.070368 447.36781,267.128765 L447.251198,267.135641 L441.251203,267.143265 C440.698919,267.143967 440.250635,266.696821 440.249933,266.144536 C440.249281,265.631701 440.634784,265.208539 441.132049,265.150142 L441.248662,265.143266 L447.248657,265.135643 Z M459.248647,265.120395 C459.800931,265.119693 460.249215,265.566839 460.249917,266.119123 C460.250568,266.631959 459.865066,267.05512 459.367801,267.113517 L459.251188,267.120393 L453.251193,267.128017 C452.698909,267.128719 452.250625,266.681573 452.249923,266.129289 C452.249272,265.616453 452.634774,265.193292 453.132039,265.134895 L453.248652,265.128019 L459.248647,265.120395 Z M471.248637,265.105147 C471.800922,265.104445 472.249205,265.551591 472.249907,266.103876 C472.250559,266.616711 471.865056,267.039873 471.367791,267.09827 L471.251179,267.105145 L465.251183,267.112769 C464.698899,267.113471 464.250615,266.666325 464.249914,266.114041 C464.249262,265.601205 464.634765,265.178044 465.13203,265.119647 L465.248642,265.112771 L471.248637,265.105147 Z M483.248628,265.089899 C483.800912,265.089198 484.249196,265.536344 484.249897,266.088628 C484.250549,266.601463 483.865046,267.024625 483.367781,267.083022 L483.251169,267.089898 L477.251174,267.097522 C476.698889,267.098223 476.250606,266.651077 476.249904,266.098793 C476.249252,265.585958 476.634755,265.162796 477.13202,265.104399 L477.248632,265.097523 L483.248628,265.089899 Z M495.248618,265.074652 C495.800902,265.07395 496.249186,265.521096 496.249888,266.07338 C496.250539,266.586215 495.865037,267.009377 495.367772,267.067774 L495.251159,267.07465 L489.251164,267.082274 C488.69888,267.082976 488.250596,266.63583 488.249894,266.083545 C488.249243,265.57071 488.634745,265.147548 489.13201,265.089151 L489.248623,265.082275 L495.248618,265.074652 Z M507.248608,265.059404 C507.800893,265.058702 508.249176,265.505848 508.249878,266.058132 C508.25053,266.570968 507.865027,266.994129 507.367762,267.052526 L507.25115,267.059402 L501.251154,267.067026 C500.69887,267.067728 500.250586,266.620582 500.249885,266.068297 C500.249233,265.555462 500.634736,265.132301 501.132001,265.073904 L501.248613,265.067028 L507.248608,265.059404 Z M519.248599,265.044156 C519.800883,265.043454 520.249167,265.4906 520.249868,266.042885 C520.25052,266.55572 519.865017,266.978881 519.367752,267.037278 L519.25114,267.044154 L513.251145,267.051778 C512.69886,267.05248 512.250577,266.605334 512.249875,266.05305 C512.249223,265.540214 512.634726,265.117053 513.131991,265.058656 L513.248603,265.05178 L519.248599,265.044156 Z M531.248589,265.028908 C531.800873,265.028206 532.249157,265.475352 532.249859,266.027637 C532.25051,266.540472 531.865008,266.963634 531.367743,267.022031 L531.25113,267.028907 L525.251135,267.03653 C524.698851,267.037232 524.250567,266.590086 524.249865,266.037802 C524.249214,265.524967 524.634716,265.101805 525.131981,265.043408 L525.248594,265.036532 L531.248589,265.028908 Z M543.248579,265.01366 C543.800864,265.012959 544.249147,265.460105 544.249849,266.012389 C544.250501,266.525224 543.864998,266.948386 543.367733,267.006783 L543.25112,267.013659 L542.753152,267.014292 L537.251125,267.021283 C536.698841,267.021984 536.250557,266.574838 536.249855,266.022554 C536.249204,265.509719 536.634707,265.086557 537.131972,265.02816 L537.248584,265.021284 L542.750611,265.014293 L543.248579,265.01366 Z" fill="#000000" fill-rule="nonzero"></path>
        <text id="Split" font-family="FiraCode-Light_Retina, Fira Code" font-size="20" font-weight="300" fill="#000000">
            <tspan x="697" y="299">Split</tspan>
        </text>
        <path id="路径" d="M814.125578,258.340925 L814.230586,258.392102 L826.239153,265.126849 C826.881504,265.487098 826.9183,266.379948 826.348262,266.800829 L826.241368,266.869999 L814.249954,273.635241 C813.768941,273.906616 813.159009,273.736671 812.887634,273.255658 C812.635643,272.809002 812.764178,272.251188 813.168952,271.956501 L813.267218,271.893337 L821.933,267.004 L820.251116,267.006035 C819.698831,267.006737 819.250548,266.559591 819.249846,266.007306 C819.249194,265.494471 819.634697,265.071309 820.131962,265.012912 L820.248574,265.006037 L821.932,265.004 L813.252279,260.136498 C812.804985,259.885643 812.625164,259.342188 812.818057,258.880154 L812.869234,258.775147 C813.12009,258.327853 813.663544,258.148032 814.125578,258.340925 Z M634.248725,265.242377 C634.801009,265.241675 635.249293,265.688821 635.249994,266.241105 C635.250646,266.753941 634.865143,267.177102 634.367878,267.235499 L634.251266,267.242375 L628.251271,267.249999 C627.698986,267.250701 627.250703,266.803555 627.250001,266.251271 C627.249349,265.738435 627.634852,265.315274 628.132117,265.256877 L628.248729,265.250001 L634.248725,265.242377 Z M646.248715,265.227129 C646.800999,265.226427 647.249283,265.673573 647.249985,266.225858 C647.250636,266.738693 646.865133,267.161855 646.367869,267.220252 L646.251256,267.227128 L640.251261,267.234751 C639.698977,267.235453 639.250693,266.788307 639.249991,266.236023 C639.249339,265.723187 639.634842,265.300026 640.132107,265.241629 L640.24872,265.234753 L646.248715,265.227129 Z M658.248705,265.211881 C658.800989,265.21118 659.249273,265.658326 659.249975,266.21061 C659.250627,266.723445 658.865124,267.146607 658.367859,267.205004 L658.251246,267.21188 L652.251251,267.219504 C651.698967,267.220205 651.250683,266.773059 651.249981,266.220775 C651.24933,265.70794 651.634833,265.284778 652.132097,265.226381 L652.24871,265.219505 L658.248705,265.211881 Z M670.248695,265.196634 C670.80098,265.195932 671.249264,265.643078 671.249965,266.195362 C671.250617,266.708198 670.865114,267.131359 670.367849,267.189756 L670.251237,267.196632 L664.251242,267.204256 C663.698957,267.204958 663.250674,266.757812 663.249972,266.205527 C663.24932,265.692692 663.634823,265.26953 664.132088,265.211133 L664.2487,265.204258 L670.248695,265.196634 Z M682.248686,265.181386 C682.80097,265.180684 683.249254,265.62783 683.249956,266.180114 C683.250607,266.69295 682.865104,267.116111 682.36784,267.174508 L682.251227,267.181384 L676.251232,267.189008 C675.698948,267.18971 675.250664,266.742564 675.249962,266.19028 C675.24931,265.677444 675.634813,265.254283 676.132078,265.195886 L676.248691,265.18901 L682.248686,265.181386 Z M694.248676,265.166138 C694.80096,265.165436 695.249244,265.612582 695.249946,266.164867 C695.250598,266.677702 694.865095,267.100864 694.36783,267.159261 L694.251217,267.166136 L688.251222,267.17376 C687.698938,267.174462 687.250654,266.727316 687.249952,266.175032 C687.249301,265.662196 687.634804,265.239035 688.132068,265.180638 L688.248681,265.173762 L694.248676,265.166138 Z M706.248666,265.15089 C706.800951,265.150189 707.249234,265.597335 707.249936,266.149619 C707.250588,266.662454 706.865085,267.085616 706.36782,267.144013 L706.251208,267.150889 L700.251213,267.158513 C699.698928,267.159214 699.250644,266.712068 699.249943,266.159784 C699.249291,265.646949 699.634794,265.223787 700.132059,265.16539 L700.248671,265.158514 L706.248666,265.15089 Z M718.248657,265.135643 C718.800941,265.134941 719.249225,265.582087 719.249927,266.134371 C719.250578,266.647207 718.865075,267.070368 718.36781,267.128765 L718.251198,267.135641 L712.251203,267.143265 C711.698919,267.143967 711.250635,266.696821 711.249933,266.144536 C711.249281,265.631701 711.634784,265.208539 712.132049,265.150142 L712.248662,265.143266 L718.248657,265.135643 Z M730.248647,265.120395 C730.800931,265.119693 731.249215,265.566839 731.249917,266.119123 C731.250568,266.631959 730.865066,267.05512 730.367801,267.113517 L730.251188,267.120393 L724.251193,267.128017 C723.698909,267.128719 723.250625,266.681573 723.249923,266.129289 C723.249272,265.616453 723.634774,265.193292 724.132039,265.134895 L724.248652,265.128019 L730.248647,265.120395 Z M742.248637,265.105147 C742.800922,265.104445 743.249205,265.551591 743.249907,266.103876 C743.250559,266.616711 742.865056,267.039873 742.367791,267.09827 L742.251179,267.105145 L736.251183,267.112769 C735.698899,267.113471 735.250615,266.666325 735.249914,266.114041 C735.249262,265.601205 735.634765,265.178044 736.13203,265.119647 L736.248642,265.112771 L742.248637,265.105147 Z M754.248628,265.089899 C754.800912,265.089198 755.249196,265.536344 755.249897,266.088628 C755.250549,266.601463 754.865046,267.024625 754.367781,267.083022 L754.251169,267.089898 L748.251174,267.097522 C747.698889,267.098223 747.250606,266.651077 747.249904,266.098793 C747.249252,265.585958 747.634755,265.162796 748.13202,265.104399 L748.248632,265.097523 L754.248628,265.089899 Z M766.248618,265.074652 C766.800902,265.07395 767.249186,265.521096 767.249888,266.07338 C767.250539,266.586215 766.865037,267.009377 766.367772,267.067774 L766.251159,267.07465 L760.251164,267.082274 C759.69888,267.082976 759.250596,266.63583 759.249894,266.083545 C759.249243,265.57071 759.634745,265.147548 760.13201,265.089151 L760.248623,265.082275 L766.248618,265.074652 Z M778.248608,265.059404 C778.800893,265.058702 779.249176,265.505848 779.249878,266.058132 C779.25053,266.570968 778.865027,266.994129 778.367762,267.052526 L778.25115,267.059402 L772.251154,267.067026 C771.69887,267.067728 771.250586,266.620582 771.249885,266.068297 C771.249233,265.555462 771.634736,265.132301 772.132001,265.073904 L772.248613,265.067028 L778.248608,265.059404 Z M790.248599,265.044156 C790.800883,265.043454 791.249167,265.4906 791.249868,266.042885 C791.25052,266.55572 790.865017,266.978881 790.367752,267.037278 L790.25114,267.044154 L784.251145,267.051778 C783.69886,267.05248 783.250577,266.605334 783.249875,266.05305 C783.249223,265.540214 783.634726,265.117053 784.131991,265.058656 L784.248603,265.05178 L790.248599,265.044156 Z M802.248589,265.028908 C802.800873,265.028206 803.249157,265.475352 803.249859,266.027637 C803.25051,266.540472 802.865008,266.963634 802.367743,267.022031 L802.25113,267.028907 L796.251135,267.03653 C795.698851,267.037232 795.250567,266.590086 795.249865,266.037802 C795.249214,265.524967 795.634716,265.101805 796.131981,265.043408 L796.248594,265.036532 L802.248589,265.028908 Z M814.248579,265.01366 C814.800864,265.012959 815.249147,265.460105 815.249849,266.012389 C815.250501,266.525224 814.864998,266.948386 814.367733,267.006783 L814.25112,267.013659 L813.753152,267.014292 L808.251125,267.021283 C807.698841,267.021984 807.250557,266.574838 807.249855,266.022554 C807.249204,265.509719 807.634707,265.086557 808.131972,265.02816 L808.248584,265.021284 L813.750611,265.014293 L814.248579,265.01366 Z" fill="#000000" fill-rule="nonzero"></path>
        <text id="Join" font-family="FiraCode-Light_Retina, Fira Code" font-size="20" font-weight="300" fill="#000000">
            <tspan x="979" y="299">Join</tspan>
        </text>
        <path id="路径" d="M1087.12558,258.340925 L1087.23059,258.392102 L1099.23915,265.126849 C1099.8815,265.487098 1099.9183,266.379948 1099.34826,266.800829 L1099.24137,266.869999 L1087.24995,273.635241 C1086.76894,273.906616 1086.15901,273.736671 1085.88763,273.255658 C1085.63564,272.809002 1085.76418,272.251188 1086.16895,271.956501 L1086.26722,271.893337 L1094.933,267.004 L1093.25112,267.006035 C1092.69883,267.006737 1092.25055,266.559591 1092.24985,266.007306 C1092.24919,265.494471 1092.6347,265.071309 1093.13196,265.012912 L1093.24857,265.006037 L1094.932,265.004 L1086.25228,260.136498 C1085.80498,259.885643 1085.62516,259.342188 1085.81806,258.880154 L1085.86923,258.775147 C1086.12009,258.327853 1086.66354,258.148032 1087.12558,258.340925 Z M907.248725,265.242377 C907.801009,265.241675 908.249293,265.688821 908.249994,266.241105 C908.250646,266.753941 907.865143,267.177102 907.367878,267.235499 L907.251266,267.242375 L901.251271,267.249999 C900.698986,267.250701 900.250703,266.803555 900.250001,266.251271 C900.249349,265.738435 900.634852,265.315274 901.132117,265.256877 L901.248729,265.250001 L907.248725,265.242377 Z M919.248715,265.227129 C919.800999,265.226427 920.249283,265.673573 920.249985,266.225858 C920.250636,266.738693 919.865133,267.161855 919.367869,267.220252 L919.251256,267.227128 L913.251261,267.234751 C912.698977,267.235453 912.250693,266.788307 912.249991,266.236023 C912.249339,265.723187 912.634842,265.300026 913.132107,265.241629 L913.24872,265.234753 L919.248715,265.227129 Z M931.248705,265.211881 C931.800989,265.21118 932.249273,265.658326 932.249975,266.21061 C932.250627,266.723445 931.865124,267.146607 931.367859,267.205004 L931.251246,267.21188 L925.251251,267.219504 C924.698967,267.220205 924.250683,266.773059 924.249981,266.220775 C924.24933,265.70794 924.634833,265.284778 925.132097,265.226381 L925.24871,265.219505 L931.248705,265.211881 Z M943.248695,265.196634 C943.80098,265.195932 944.249264,265.643078 944.249965,266.195362 C944.250617,266.708198 943.865114,267.131359 943.367849,267.189756 L943.251237,267.196632 L937.251242,267.204256 C936.698957,267.204958 936.250674,266.757812 936.249972,266.205527 C936.24932,265.692692 936.634823,265.26953 937.132088,265.211133 L937.2487,265.204258 L943.248695,265.196634 Z M955.248686,265.181386 C955.80097,265.180684 956.249254,265.62783 956.249956,266.180114 C956.250607,266.69295 955.865104,267.116111 955.36784,267.174508 L955.251227,267.181384 L949.251232,267.189008 C948.698948,267.18971 948.250664,266.742564 948.249962,266.19028 C948.24931,265.677444 948.634813,265.254283 949.132078,265.195886 L949.248691,265.18901 L955.248686,265.181386 Z M967.248676,265.166138 C967.80096,265.165436 968.249244,265.612582 968.249946,266.164867 C968.250598,266.677702 967.865095,267.100864 967.36783,267.159261 L967.251217,267.166136 L961.251222,267.17376 C960.698938,267.174462 960.250654,266.727316 960.249952,266.175032 C960.249301,265.662196 960.634804,265.239035 961.132068,265.180638 L961.248681,265.173762 L967.248676,265.166138 Z M979.248666,265.15089 C979.800951,265.150189 980.249234,265.597335 980.249936,266.149619 C980.250588,266.662454 979.865085,267.085616 979.36782,267.144013 L979.251208,267.150889 L973.251213,267.158513 C972.698928,267.159214 972.250644,266.712068 972.249943,266.159784 C972.249291,265.646949 972.634794,265.223787 973.132059,265.16539 L973.248671,265.158514 L979.248666,265.15089 Z M991.248657,265.135643 C991.800941,265.134941 992.249225,265.582087 992.249927,266.134371 C992.250578,266.647207 991.865075,267.070368 991.36781,267.128765 L991.251198,267.135641 L985.251203,267.143265 C984.698919,267.143967 984.250635,266.696821 984.249933,266.144536 C984.249281,265.631701 984.634784,265.208539 985.132049,265.150142 L985.248662,265.143266 L991.248657,265.135643 Z M1003.24865,265.120395 C1003.80093,265.119693 1004.24922,265.566839 1004.24992,266.119123 C1004.25057,266.631959 1003.86507,267.05512 1003.3678,267.113517 L1003.25119,267.120393 L997.251193,267.128017 C996.698909,267.128719 996.250625,266.681573 996.249923,266.129289 C996.249272,265.616453 996.634774,265.193292 997.132039,265.134895 L997.248652,265.128019 L1003.24865,265.120395 Z M1015.24864,265.105147 C1015.80092,265.104445 1016.24921,265.551591 1016.24991,266.103876 C1016.25056,266.616711 1015.86506,267.039873 1015.36779,267.09827 L1015.25118,267.105145 L1009.25118,267.112769 C1008.6989,267.113471 1008.25062,266.666325 1008.24991,266.114041 C1008.24926,265.601205 1008.63476,265.178044 1009.13203,265.119647 L1009.24864,265.112771 L1015.24864,265.105147 Z M1027.24863,265.089899 C1027.80091,265.089198 1028.2492,265.536344 1028.2499,266.088628 C1028.25055,266.601463 1027.86505,267.024625 1027.36778,267.083022 L1027.25117,267.089898 L1021.25117,267.097522 C1020.69889,267.098223 1020.25061,266.651077 1020.2499,266.098793 C1020.24925,265.585958 1020.63476,265.162796 1021.13202,265.104399 L1021.24863,265.097523 L1027.24863,265.089899 Z M1039.24862,265.074652 C1039.8009,265.07395 1040.24919,265.521096 1040.24989,266.07338 C1040.25054,266.586215 1039.86504,267.009377 1039.36777,267.067774 L1039.25116,267.07465 L1033.25116,267.082274 C1032.69888,267.082976 1032.2506,266.63583 1032.24989,266.083545 C1032.24924,265.57071 1032.63475,265.147548 1033.13201,265.089151 L1033.24862,265.082275 L1039.24862,265.074652 Z M1051.24861,265.059404 C1051.80089,265.058702 1052.24918,265.505848 1052.24988,266.058132 C1052.25053,266.570968 1051.86503,266.994129 1051.36776,267.052526 L1051.25115,267.059402 L1045.25115,267.067026 C1044.69887,267.067728 1044.25059,266.620582 1044.24988,266.068297 C1044.24923,265.555462 1044.63474,265.132301 1045.132,265.073904 L1045.24861,265.067028 L1051.24861,265.059404 Z M1063.2486,265.044156 C1063.80088,265.043454 1064.24917,265.4906 1064.24987,266.042885 C1064.25052,266.55572 1063.86502,266.978881 1063.36775,267.037278 L1063.25114,267.044154 L1057.25114,267.051778 C1056.69886,267.05248 1056.25058,266.605334 1056.24987,266.05305 C1056.24922,265.540214 1056.63473,265.117053 1057.13199,265.058656 L1057.2486,265.05178 L1063.2486,265.044156 Z M1075.24859,265.028908 C1075.80087,265.028206 1076.24916,265.475352 1076.24986,266.027637 C1076.25051,266.540472 1075.86501,266.963634 1075.36774,267.022031 L1075.25113,267.028907 L1069.25114,267.03653 C1068.69885,267.037232 1068.25057,266.590086 1068.24987,266.037802 C1068.24921,265.524967 1068.63472,265.101805 1069.13198,265.043408 L1069.24859,265.036532 L1075.24859,265.028908 Z M1087.24858,265.01366 C1087.80086,265.012959 1088.24915,265.460105 1088.24985,266.012389 C1088.2505,266.525224 1087.865,266.948386 1087.36773,267.006783 L1087.25112,267.013659 L1086.75315,267.014292 L1081.25113,267.021283 C1080.69884,267.021984 1080.25056,266.574838 1080.24986,266.022554 C1080.2492,265.509719 1080.63471,265.086557 1081.13197,265.02816 L1081.24858,265.021284 L1086.75061,265.014293 L1087.24858,265.01366 Z" fill="#000000" fill-rule="nonzero"></path>
        <line x1="300" y1="52" x2="246" y2="96" id="直线" stroke="#000000" stroke-width="2" stroke-linecap="round" stroke-linejoin="round"></line>
        <line x1="330" y1="52" x2="390" y2="96" id="直线" stroke="#000000" stroke-width="2" stroke-linecap="round" stroke-linejoin="round"></line>
        <path d="M518.5,99.0643126 L476.403156,221 L560.596844,221 L518.5,99.0643126 Z" id="三角形" stroke="#000000" stroke-width="2"></path>
        <path d="M662.5,99.0643126 L620.403156,221 L704.596844,221 L662.5,99.0643126 Z" id="三角形" stroke="#000000" stroke-width="2"></path>
        <line x1="588" y1="39" x2="495" y2="39" id="直线" stroke="#000000" stroke-width="2" stroke-linecap="round" stroke-linejoin="round" stroke-dasharray="6"></line>
        <g id="编组" transform="translate(568.000000, 19.000000)">
            <circle id="椭圆形" stroke="#000000" stroke-width="2" fill="#FFFFFF" cx="20" cy="20" r="19"></circle>
            <text id="t" font-family="FiraCode-Light_Retina, Fira Code" font-size="20" font-weight="300" fill="#000000">
                <tspan x="14" y="27">t</tspan>
            </text>
        </g>
        <g id="编组" transform="translate(475.000000, 19.000000)">
            <circle id="椭圆形" stroke="#000000" stroke-width="2" fill="#FFFFFF" cx="20" cy="20" r="19"></circle>
            <text id="v" font-family="FiraCode-Light_Retina, Fira Code" font-size="20" font-weight="300" fill="#000000">
                <tspan x="14" y="27">v</tspan>
            </text>
        </g>
        <text id="&lt;t" font-family="FiraCode-Light_Retina, Fira Code" font-size="20" font-weight="300" fill="#000000">
            <tspan x="507" y="196">&lt;t</tspan>
        </text>
        <text id="&gt;t" font-family="FiraCode-Light_Retina, Fira Code" font-size="20" font-weight="300" fill="#000000">
            <tspan x="651" y="196">&gt;t</tspan>
        </text>
        <line x1="573" y1="52" x2="519" y2="96" id="直线" stroke="#000000" stroke-width="2" stroke-linecap="round" stroke-linejoin="round"></line>
        <line x1="1138" y1="39" x2="1065" y2="94" id="直线" stroke="#000000" stroke-width="2" stroke-linecap="round" stroke-linejoin="round"></line>
        <line x1="1138" y1="39" x2="1209" y2="96" id="直线" stroke="#000000" stroke-width="2" stroke-linecap="round" stroke-linejoin="round"></line>
        <line x1="603" y1="52" x2="663" y2="96" id="直线" stroke="#000000" stroke-width="2" stroke-linecap="round" stroke-linejoin="round"></line>
        <path d="M791.5,99.0643126 L749.403156,221 L833.596844,221 L791.5,99.0643126 Z" id="三角形" stroke="#000000" stroke-width="2"></path>
        <path d="M935.5,99.0643126 L893.403156,221 L977.596844,221 L935.5,99.0643126 Z" id="三角形" stroke="#000000" stroke-width="2"></path>
        <g id="编组" transform="translate(772.000000, 74.000000)">
            <circle id="椭圆形" stroke="#000000" stroke-width="2" fill="#FFFFFF" cx="20" cy="20" r="19"></circle>
            <text id="t" font-family="FiraCode-Light_Retina, Fira Code" font-size="20" font-weight="300" fill="#000000">
                <tspan x="14" y="27">t</tspan>
            </text>
        </g>
        <g id="编组" transform="translate(845.000000, 19.000000)">
            <circle id="椭圆形" stroke="#000000" stroke-width="2" fill="#FFFFFF" cx="20" cy="20" r="19"></circle>
            <text id="v" font-family="FiraCode-Light_Retina, Fira Code" font-size="20" font-weight="300" fill="#000000">
                <tspan x="14" y="27">v</tspan>
            </text>
        </g>
        <text id="&lt;t" font-family="FiraCode-Light_Retina, Fira Code" font-size="20" font-weight="300" fill="#000000">
            <tspan x="780" y="196">&lt;t</tspan>
        </text>
        <text id="&gt;t" font-family="FiraCode-Light_Retina, Fira Code" font-size="20" font-weight="300" fill="#000000">
            <tspan x="924" y="196">&gt;t</tspan>
        </text>
        <path d="M1064.5,99.0643126 L1022.40316,221 L1106.59684,221 L1064.5,99.0643126 Z" id="三角形" stroke="#000000" stroke-width="2"></path>
        <path d="M1208.5,99.0643126 L1166.40316,221 L1250.59684,221 L1208.5,99.0643126 Z" id="三角形" stroke="#000000" stroke-width="2"></path>
        <g id="编组" transform="translate(1045.000000, 74.000000)">
            <circle id="椭圆形" stroke="#000000" stroke-width="2" fill="#FFFFFF" cx="20" cy="20" r="19"></circle>
            <text id="t" font-family="FiraCode-Light_Retina, Fira Code" font-size="20" font-weight="300" fill="#000000">
                <tspan x="14" y="27">t</tspan>
            </text>
        </g>
        <g id="编组" transform="translate(1118.000000, 19.000000)">
            <circle id="椭圆形" stroke="#000000" stroke-width="2" fill="#FFFFFF" cx="20" cy="20" r="19"></circle>
            <text id="v" font-family="FiraCode-Light_Retina, Fira Code" font-size="20" font-weight="300" fill="#000000">
                <tspan x="14" y="27">v</tspan>
            </text>
        </g>
        <text id="&lt;t" font-family="FiraCode-Light_Retina, Fira Code" font-size="20" font-weight="300" fill="#000000">
            <tspan x="1053" y="196">&lt;t</tspan>
        </text>
        <text id="&gt;t" font-family="FiraCode-Light_Retina, Fira Code" font-size="20" font-weight="300" fill="#000000">
            <tspan x="1197" y="196">&gt;t</tspan>
        </text>
    </g>
</svg>