<?xml version="1.0" encoding="UTF-8"?>
<svg width="879px" height="277px" viewBox="0 0 879 277" version="1.1" xmlns="http://www.w3.org/2000/svg" xmlns:xlink="http://www.w3.org/1999/xlink">
    <!-- Generator: Sketch 63.1 (92452) - https://sketch.com -->
    <title>未命名</title>
    <desc>Created with Sketch.</desc>
    <g id="页面-1" stroke="none" stroke-width="1" fill="none" fill-rule="evenodd">
        <line x1="100.5" y1="23.5" x2="60.5" y2="96.5" id="直线" stroke="#000000" stroke-width="2" stroke-linecap="square"></line>
        <line x1="60" y1="96" x2="20" y2="172" id="直线" stroke="#000000" stroke-width="2" stroke-linecap="square"></line>
        <g id="编组" transform="translate(80.000000, 0.000000)" fill="#FFFFFF" stroke="#000000" stroke-width="2">
            <circle id="椭圆形" cx="20" cy="20" r="19"></circle>
        </g>
        <g id="编组" transform="translate(40.000000, 76.000000)" fill="#FFFFFF" stroke="#000000" stroke-width="2">
            <circle id="椭圆形" cx="20" cy="20" r="19"></circle>
        </g>
        <g id="编组" transform="translate(0.000000, 152.000000)" fill="#FFFFFF" stroke="#000000" stroke-width="2">
            <circle id="椭圆形" cx="20" cy="20" r="19"></circle>
        </g>
        <text id="g" font-family="FiraCode-Light_Retina, Fira Code" font-size="20" font-weight="300" fill="#000000">
            <tspan x="94" y="24">g</tspan>
        </text>
        <text id="f" font-family="FiraCode-Light_Retina, Fira Code" font-size="20" font-weight="300" fill="#000000">
            <tspan x="54" y="104">f</tspan>
        </text>
        <line x1="100.5" y1="23.5" x2="60.5" y2="96.5" id="直线" stroke="#000000" stroke-width="2" stroke-linecap="square"></line>
        <line x1="60" y1="96" x2="20" y2="172" id="直线" stroke="#000000" stroke-width="2" stroke-linecap="square"></line>
        <path id="直线" d="M269.135319,220.327113 L269.240261,220.378424 L281.240261,227.128424 L282.789729,228 L281.240261,228.871576 L269.240261,235.621576 C268.758903,235.892339 268.149188,235.721619 267.878424,235.240261 C267.627001,234.793286 267.756245,234.235636 268.161393,233.941463 L268.259739,233.878424 L276.931,229 L274,229 C273.447715,229 273,228.552285 273,228 C273,227.487164 273.38604,227.064493 273.883379,227.006728 L274,227 L276.934,227 L268.259739,222.121576 C267.812764,221.870152 267.633634,221.326469 267.827113,220.864681 L267.878424,220.759739 C268.129848,220.312764 268.673531,220.133634 269.135319,220.327113 Z M268,227 C268.552285,227 269,227.447715 269,228 C269,228.512836 268.61396,228.935507 268.116621,228.993272 L268,229 L262,229 C261.447715,229 261,228.552285 261,228 C261,227.487164 261.38604,227.064493 261.883379,227.006728 L262,227 L268,227 Z M256,227 C256.552285,227 257,227.447715 257,228 C257,228.512836 256.61396,228.935507 256.116621,228.993272 L256,229 L250,229 C249.447715,229 249,228.552285 249,228 C249,227.487164 249.38604,227.064493 249.883379,227.006728 L250,227 L256,227 Z M244,227 C244.552285,227 245,227.447715 245,228 C245,228.512836 244.61396,228.935507 244.116621,228.993272 L244,229 L238,229 C237.447715,229 237,228.552285 237,228 C237,227.487164 237.38604,227.064493 237.883379,227.006728 L238,227 L244,227 Z M232,227 C232.552285,227 233,227.447715 233,228 C233,228.512836 232.61396,228.935507 232.116621,228.993272 L232,229 L226,229 C225.447715,229 225,228.552285 225,228 C225,227.487164 225.38604,227.064493 225.883379,227.006728 L226,227 L232,227 Z M220,227 C220.552285,227 221,227.447715 221,228 C221,228.512836 220.61396,228.935507 220.116621,228.993272 L220,229 L214,229 C213.447715,229 213,228.552285 213,228 C213,227.487164 213.38604,227.064493 213.883379,227.006728 L214,227 L220,227 Z M208,227 C208.552285,227 209,227.447715 209,228 C209,228.512836 208.61396,228.935507 208.116621,228.993272 L208,229 L202,229 C201.447715,229 201,228.552285 201,228 C201,227.487164 201.38604,227.064493 201.883379,227.006728 L202,227 L208,227 Z M196,227 C196.552285,227 197,227.447715 197,228 C197,228.512836 196.61396,228.935507 196.116621,228.993272 L196,229 L190,229 C189.447715,229 189,228.552285 189,228 C189,227.487164 189.38604,227.064493 189.883379,227.006728 L190,227 L196,227 Z M184,227 C184.552285,227 185,227.447715 185,228 C185,228.512836 184.61396,228.935507 184.116621,228.993272 L184,229 L178,229 C177.447715,229 177,228.552285 177,228 C177,227.487164 177.38604,227.064493 177.883379,227.006728 L178,227 L184,227 Z M172,227 C172.552285,227 173,227.447715 173,228 C173,228.512836 172.61396,228.935507 172.116621,228.993272 L172,229 L166,229 C165.447715,229 165,228.552285 165,228 C165,227.487164 165.38604,227.064493 165.883379,227.006728 L166,227 L172,227 Z M160,227 C160.552285,227 161,227.447715 161,228 C161,228.512836 160.61396,228.935507 160.116621,228.993272 L160,229 L154,229 C153.447715,229 153,228.552285 153,228 C153,227.487164 153.38604,227.064493 153.883379,227.006728 L154,227 L160,227 Z M148,227 C148.552285,227 149,227.447715 149,228 C149,228.512836 148.61396,228.935507 148.116621,228.993272 L148,229 L142,229 C141.447715,229 141,228.552285 141,228 C141,227.487164 141.38604,227.064493 141.883379,227.006728 L142,227 L148,227 Z M136,227 C136.552285,227 137,227.447715 137,228 C137,228.512836 136.61396,228.935507 136.116621,228.993272 L136,229 L130,229 C129.447715,229 129,228.552285 129,228 C129,227.487164 129.38604,227.064493 129.883379,227.006728 L130,227 L136,227 Z M124,227 C124.552285,227 125,227.447715 125,228 C125,228.512836 124.61396,228.935507 124.116621,228.993272 L124,229 L118,229 C117.447715,229 117,228.552285 117,228 C117,227.487164 117.38604,227.064493 117.883379,227.006728 L118,227 L124,227 Z M112,227 C112.552285,227 113,227.447715 113,228 C113,228.512836 112.61396,228.935507 112.116621,228.993272 L112,229 L106,229 C105.447715,229 105,228.552285 105,228 C105,227.487164 105.38604,227.064493 105.883379,227.006728 L106,227 L112,227 Z M100,227 C100.552285,227 101,227.447715 101,228 C101,228.512836 100.61396,228.935507 100.116621,228.993272 L100,229 L94,229 C93.4477153,229 93,228.552285 93,228 C93,227.487164 93.3860402,227.064493 93.8833789,227.006728 L94,227 L100,227 Z" fill="#000000" fill-rule="nonzero"></path>
        <path id="直线" d="M779.135319,220.327113 L779.240261,220.378424 L791.240261,227.128424 L792.789729,228 L791.240261,228.871576 L779.240261,235.621576 C778.758903,235.892339 778.149188,235.721619 777.878424,235.240261 C777.627001,234.793286 777.756245,234.235636 778.161393,233.941463 L778.259739,233.878424 L786.931,229 L784,229 C783.447715,229 783,228.552285 783,228 C783,227.487164 783.38604,227.064493 783.883379,227.006728 L784,227 L786.934,227 L778.259739,222.121576 C777.812764,221.870152 777.633634,221.326469 777.827113,220.864681 L777.878424,220.759739 C778.129848,220.312764 778.673531,220.133634 779.135319,220.327113 Z M778,227 C778.552285,227 779,227.447715 779,228 C779,228.512836 778.61396,228.935507 778.116621,228.993272 L778,229 L772,229 C771.447715,229 771,228.552285 771,228 C771,227.487164 771.38604,227.064493 771.883379,227.006728 L772,227 L778,227 Z M766,227 C766.552285,227 767,227.447715 767,228 C767,228.512836 766.61396,228.935507 766.116621,228.993272 L766,229 L760,229 C759.447715,229 759,228.552285 759,228 C759,227.487164 759.38604,227.064493 759.883379,227.006728 L760,227 L766,227 Z M754,227 C754.552285,227 755,227.447715 755,228 C755,228.512836 754.61396,228.935507 754.116621,228.993272 L754,229 L748,229 C747.447715,229 747,228.552285 747,228 C747,227.487164 747.38604,227.064493 747.883379,227.006728 L748,227 L754,227 Z M742,227 C742.552285,227 743,227.447715 743,228 C743,228.512836 742.61396,228.935507 742.116621,228.993272 L742,229 L736,229 C735.447715,229 735,228.552285 735,228 C735,227.487164 735.38604,227.064493 735.883379,227.006728 L736,227 L742,227 Z M730,227 C730.552285,227 731,227.447715 731,228 C731,228.512836 730.61396,228.935507 730.116621,228.993272 L730,229 L724,229 C723.447715,229 723,228.552285 723,228 C723,227.487164 723.38604,227.064493 723.883379,227.006728 L724,227 L730,227 Z M718,227 C718.552285,227 719,227.447715 719,228 C719,228.512836 718.61396,228.935507 718.116621,228.993272 L718,229 L712,229 C711.447715,229 711,228.552285 711,228 C711,227.487164 711.38604,227.064493 711.883379,227.006728 L712,227 L718,227 Z M706,227 C706.552285,227 707,227.447715 707,228 C707,228.512836 706.61396,228.935507 706.116621,228.993272 L706,229 L700,229 C699.447715,229 699,228.552285 699,228 C699,227.487164 699.38604,227.064493 699.883379,227.006728 L700,227 L706,227 Z M694,227 C694.552285,227 695,227.447715 695,228 C695,228.512836 694.61396,228.935507 694.116621,228.993272 L694,229 L688,229 C687.447715,229 687,228.552285 687,228 C687,227.487164 687.38604,227.064493 687.883379,227.006728 L688,227 L694,227 Z M682,227 C682.552285,227 683,227.447715 683,228 C683,228.512836 682.61396,228.935507 682.116621,228.993272 L682,229 L676,229 C675.447715,229 675,228.552285 675,228 C675,227.487164 675.38604,227.064493 675.883379,227.006728 L676,227 L682,227 Z M670,227 C670.552285,227 671,227.447715 671,228 C671,228.512836 670.61396,228.935507 670.116621,228.993272 L670,229 L664,229 C663.447715,229 663,228.552285 663,228 C663,227.487164 663.38604,227.064493 663.883379,227.006728 L664,227 L670,227 Z M658,227 C658.552285,227 659,227.447715 659,228 C659,228.512836 658.61396,228.935507 658.116621,228.993272 L658,229 L652,229 C651.447715,229 651,228.552285 651,228 C651,227.487164 651.38604,227.064493 651.883379,227.006728 L652,227 L658,227 Z M646,227 C646.552285,227 647,227.447715 647,228 C647,228.512836 646.61396,228.935507 646.116621,228.993272 L646,229 L640,229 C639.447715,229 639,228.552285 639,228 C639,227.487164 639.38604,227.064493 639.883379,227.006728 L640,227 L646,227 Z M634,227 C634.552285,227 635,227.447715 635,228 C635,228.512836 634.61396,228.935507 634.116621,228.993272 L634,229 L628,229 C627.447715,229 627,228.552285 627,228 C627,227.487164 627.38604,227.064493 627.883379,227.006728 L628,227 L634,227 Z M622,227 C622.552285,227 623,227.447715 623,228 C623,228.512836 622.61396,228.935507 622.116621,228.993272 L622,229 L616,229 C615.447715,229 615,228.552285 615,228 C615,227.487164 615.38604,227.064493 615.883379,227.006728 L616,227 L622,227 Z M610,227 C610.552285,227 611,227.447715 611,228 C611,228.512836 610.61396,228.935507 610.116621,228.993272 L610,229 L604,229 C603.447715,229 603,228.552285 603,228 C603,227.487164 603.38604,227.064493 603.883379,227.006728 L604,227 L610,227 Z" fill="#000000" fill-rule="nonzero"></path>
        <line x1="60" y1="96" x2="100" y2="172" id="直线" stroke="#000000" stroke-width="2" stroke-linecap="square"></line>
        <g id="编组" transform="translate(80.000000, 0.000000)" fill="#FFFFFF" stroke="#000000" stroke-width="2">
            <circle id="椭圆形" cx="20" cy="20" r="19"></circle>
        </g>
        <g id="编组" transform="translate(40.000000, 76.000000)" fill="#FFFFFF" stroke="#000000" stroke-width="2">
            <circle id="椭圆形" cx="20" cy="20" r="19"></circle>
        </g>
        <g id="编组" transform="translate(80.000000, 152.000000)" fill="#FFFFFF" stroke="#000000" stroke-width="2">
            <circle id="椭圆形" cx="20" cy="20" r="19"></circle>
        </g>
        <g id="编组" transform="translate(0.000000, 152.000000)" fill="#FFFFFF" stroke="#000000" stroke-width="2">
            <circle id="椭圆形" cx="20" cy="20" r="19"></circle>
        </g>
        <text id="g" font-family="FiraCode-Light_Retina, Fira Code" font-size="20" font-weight="300" fill="#000000">
            <tspan x="94" y="24">g</tspan>
        </text>
        <text id="f" font-family="FiraCode-Light_Retina, Fira Code" font-size="20" font-weight="300" fill="#000000">
            <tspan x="54" y="104">f</tspan>
        </text>
        <text id="(a)" font-family="FiraCode-Light_Retina, Fira Code" font-size="20" font-weight="300" fill="#000000">
            <tspan x="44" y="235">(a)</tspan>
        </text>
        <text id="(b)" font-family="FiraCode-Light_Retina, Fira Code" font-size="20" font-weight="300" fill="#000000">
            <tspan x="292" y="235">(b)</tspan>
        </text>
        <text id="R_rotate" font-family="FiraCode-Light_Retina, Fira Code" font-size="20" font-weight="300" fill="#000000">
            <tspan x="137" y="271">R_rotate</tspan>
        </text>
        <text id="(c)" font-family="FiraCode-Light_Retina, Fira Code" font-size="20" font-weight="300" fill="#000000">
            <tspan x="553" y="235">(c)</tspan>
        </text>
        <text id="(d)" font-family="FiraCode-Light_Retina, Fira Code" font-size="20" font-weight="300" fill="#000000">
            <tspan x="801" y="235">(d)</tspan>
        </text>
        <text id="L_rotate" font-family="FiraCode-Light_Retina, Fira Code" font-size="20" font-weight="300" fill="#000000">
            <tspan x="646" y="271">L_rotate</tspan>
        </text>
        <text id="fr" font-family="FiraCode-Light_Retina, Fira Code" font-size="20" font-weight="300" fill="#000000">
            <tspan x="89" y="179">fr</tspan>
        </text>
        <text id="v" font-family="FiraCode-Light_Retina, Fira Code" font-size="20" font-weight="300" fill="#000000">
            <tspan x="14" y="179">v</tspan>
        </text>
        <line x1="592" y1="93" x2="552" y2="166" id="直线" stroke="#000000" stroke-width="2" stroke-linecap="square"></line>
        <g id="编组" transform="translate(531.000000, 0.000000)" fill="#FFFFFF" stroke="#000000" stroke-width="2">
            <circle id="椭圆形" cx="20" cy="20" r="19"></circle>
        </g>
        <text id="g" font-family="FiraCode-Light_Retina, Fira Code" font-size="20" font-weight="300" fill="#000000">
            <tspan x="545" y="24">g</tspan>
        </text>
        <line x1="551.5" y1="23.5" x2="591" y2="97" id="直线" stroke="#000000" stroke-width="2" stroke-linecap="square"></line>
        <line x1="591" y1="93" x2="631" y2="169" id="直线" stroke="#000000" stroke-width="2" stroke-linecap="square"></line>
        <g id="编组" transform="translate(531.000000, 0.000000)" fill="#FFFFFF" stroke="#000000" stroke-width="2">
            <circle id="椭圆形" cx="20" cy="20" r="19"></circle>
        </g>
        <g id="编组" transform="translate(571.000000, 76.000000)" fill="#FFFFFF" stroke="#000000" stroke-width="2">
            <circle id="椭圆形" cx="20" cy="20" r="19"></circle>
        </g>
        <g id="编组" transform="translate(531.000000, 152.000000)" fill="#FFFFFF" stroke="#000000" stroke-width="2">
            <circle id="椭圆形" cx="20" cy="20" r="19"></circle>
        </g>
        <g id="编组" transform="translate(611.000000, 152.000000)" fill="#FFFFFF" stroke="#000000" stroke-width="2">
            <circle id="椭圆形" cx="20" cy="20" r="19"></circle>
        </g>
        <text id="g" font-family="FiraCode-Light_Retina, Fira Code" font-size="20" font-weight="300" fill="#000000">
            <tspan x="545" y="24">g</tspan>
        </text>
        <text id="f" font-family="FiraCode-Light_Retina, Fira Code" font-size="20" font-weight="300" fill="#000000">
            <tspan x="585" y="104">f</tspan>
        </text>
        <text id="fl" font-family="FiraCode-Light_Retina, Fira Code" font-size="20" font-weight="300" fill="#000000">
            <tspan x="540" y="179">fl</tspan>
        </text>
        <text id="v" font-family="FiraCode-Light_Retina, Fira Code" font-size="20" font-weight="300" fill="#000000">
            <tspan x="625" y="179">v</tspan>
        </text>
        <line x1="779" y1="97" x2="820" y2="166" id="直线" stroke="#000000" stroke-width="2" stroke-linecap="square"></line>
        <g id="编组" transform="translate(799.000000, 0.000000)" fill="#FFFFFF" stroke="#000000" stroke-width="2">
            <circle id="椭圆形" cx="20" cy="20" r="19"></circle>
        </g>
        <text id="g" font-family="FiraCode-Light_Retina, Fira Code" font-size="20" font-weight="300" fill="#000000">
            <tspan x="813" y="24">g</tspan>
        </text>
        <line x1="819.5" y1="23.5" x2="859" y2="97" id="直线" stroke="#000000" stroke-width="2" stroke-linecap="square"></line>
        <line x1="819.5" y1="23.5" x2="779" y2="97" id="直线" stroke="#000000" stroke-width="2" stroke-linecap="square"></line>
        <g id="编组" transform="translate(799.000000, 0.000000)" fill="#FFFFFF" stroke="#000000" stroke-width="2">
            <circle id="椭圆形" cx="20" cy="20" r="19"></circle>
        </g>
        <g id="编组" transform="translate(839.000000, 76.000000)" fill="#FFFFFF" stroke="#000000" stroke-width="2">
            <circle id="椭圆形" cx="20" cy="20" r="19"></circle>
        </g>
        <g id="编组" transform="translate(799.000000, 152.000000)" fill="#FFFFFF" stroke="#000000" stroke-width="2">
            <circle id="椭圆形" cx="20" cy="20" r="19"></circle>
        </g>
        <text id="f" font-family="FiraCode-Light_Retina, Fira Code" font-size="20" font-weight="300" fill="#000000">
            <tspan x="814" y="27">f</tspan>
        </text>
        <g id="编组" transform="translate(759.000000, 76.000000)" fill="#FFFFFF" stroke="#000000" stroke-width="2">
            <circle id="椭圆形" cx="20" cy="20" r="19"></circle>
        </g>
        <text id="g" font-family="FiraCode-Light_Retina, Fira Code" font-size="20" font-weight="300" fill="#000000">
            <tspan x="773" y="100">g</tspan>
        </text>
        <g id="编组" transform="translate(759.000000, 76.000000)" fill="#FFFFFF" stroke="#000000" stroke-width="2">
            <circle id="椭圆形" cx="20" cy="20" r="19"></circle>
        </g>
        <text id="g" font-family="FiraCode-Light_Retina, Fira Code" font-size="20" font-weight="300" fill="#000000">
            <tspan x="773" y="100">g</tspan>
        </text>
        <text id="v" font-family="FiraCode-Light_Retina, Fira Code" font-size="20" font-weight="300" fill="#000000">
            <tspan x="853" y="104">v</tspan>
        </text>
        <text id="fl" font-family="FiraCode-Light_Retina, Fira Code" font-size="20" font-weight="300" fill="#000000">
            <tspan x="808" y="179">fl</tspan>
        </text>
        <line x1="308.5" y1="23.5" x2="268.5" y2="96.5" id="直线" stroke="#000000" stroke-width="2" stroke-linecap="square"></line>
        <g id="编组" transform="translate(288.000000, 0.000000)" fill="#FFFFFF" stroke="#000000" stroke-width="2">
            <circle id="椭圆形" cx="20" cy="20" r="19"></circle>
        </g>
        <g id="编组" transform="translate(248.000000, 76.000000)" fill="#FFFFFF" stroke="#000000" stroke-width="2">
            <circle id="椭圆形" cx="20" cy="20" r="19"></circle>
        </g>
        <text id="g" font-family="FiraCode-Light_Retina, Fira Code" font-size="20" font-weight="300" fill="#000000">
            <tspan x="302" y="24">g</tspan>
        </text>
        <text id="f" font-family="FiraCode-Light_Retina, Fira Code" font-size="20" font-weight="300" fill="#000000">
            <tspan x="262" y="104">f</tspan>
        </text>
        <line x1="308.5" y1="23.5" x2="268.5" y2="96.5" id="直线" stroke="#000000" stroke-width="2" stroke-linecap="square"></line>
        <line x1="308.5" y1="23.5" x2="348" y2="96" id="直线" stroke="#000000" stroke-width="2" stroke-linecap="square"></line>
        <line x1="348" y1="96" x2="308" y2="172" id="直线" stroke="#000000" stroke-width="2" stroke-linecap="square"></line>
        <g id="编组" transform="translate(288.000000, 0.000000)" fill="#FFFFFF" stroke="#000000" stroke-width="2">
            <circle id="椭圆形" cx="20" cy="20" r="19"></circle>
        </g>
        <g id="编组" transform="translate(248.000000, 76.000000)" fill="#FFFFFF" stroke="#000000" stroke-width="2">
            <circle id="椭圆形" cx="20" cy="20" r="19"></circle>
        </g>
        <g id="编组" transform="translate(288.000000, 152.000000)" fill="#FFFFFF" stroke="#000000" stroke-width="2">
            <circle id="椭圆形" cx="20" cy="20" r="19"></circle>
        </g>
        <text id="f" font-family="FiraCode-Light_Retina, Fira Code" font-size="20" font-weight="300" fill="#000000">
            <tspan x="302" y="27">f</tspan>
        </text>
        <g id="编组" transform="translate(328.000000, 76.000000)" fill="#FFFFFF" stroke="#000000" stroke-width="2">
            <circle id="椭圆形" cx="20" cy="20" r="19"></circle>
        </g>
        <text id="g" font-family="FiraCode-Light_Retina, Fira Code" font-size="20" font-weight="300" fill="#000000">
            <tspan x="342" y="100">g</tspan>
        </text>
        <g id="编组" transform="translate(328.000000, 76.000000)" fill="#FFFFFF" stroke="#000000" stroke-width="2">
            <circle id="椭圆形" cx="20" cy="20" r="19"></circle>
        </g>
        <text id="g" font-family="FiraCode-Light_Retina, Fira Code" font-size="20" font-weight="300" fill="#000000">
            <tspan x="342" y="100">g</tspan>
        </text>
        <text id="v" font-family="FiraCode-Light_Retina, Fira Code" font-size="20" font-weight="300" fill="#000000">
            <tspan x="262" y="103">v</tspan>
        </text>
        <text id="fr" font-family="FiraCode-Light_Retina, Fira Code" font-size="20" font-weight="300" fill="#000000">
            <tspan x="297" y="179">fr</tspan>
        </text>
    </g>
</svg>