<?xml version="1.0" standalone="no"?><!DOCTYPE svg PUBLIC "-//W3C//DTD SVG 1.1//EN" "http://www.w3.org/Graphics/SVG/1.1/DTD/svg11.dtd"><svg class="icon" width="200px" height="200.00px" viewBox="0 0 1024 1024" version="1.1" xmlns="http://www.w3.org/2000/svg"><path d="M626 840.1H245.6c-33.1 0-59.9-26.9-59.9-59.9V399.7c0-33.1 26.9-59.9 59.9-59.9h318.1c11 0 20 8.9 20 20 0 11-8.9 20-20 20H245.6c-11 0-20 9-20 20v380.4c0 11 9 20 20 20H626c11 0 20-9 20-20V462.9c0-11 8.9-20 20-20 11 0 20 8.9 20 20v317.2c-0.1 33.1-27 60-60 60zM819.4 443.3c-11 0-20-8.9-20-20v-217c0-11 8.9-20 20-20 11 0 20 8.9 20 20v217c0 11.1-9 20-20 20z" fill="#0593d3" /><path d="M819.4 226.3H602.8c-11 0-20-8.9-20-20s8.9-20 20-20h216.6c11 0 20 8.9 20 20s-9 20-20 20z" fill="#0593d3" /><path d="M512.5 533.2c-5.1 0-10.2-2-14.1-5.9-7.8-7.8-7.8-20.5 0-28.3l306.9-306.9c7.8-7.8 20.5-7.8 28.3 0 7.8 7.8 7.8 20.5 0 28.3l-307 307c-3.9 3.9-9 5.8-14.1 5.8z" fill="#0593d3" /></svg>