<?xml version="1.0" encoding="UTF-8"?>
<svg width="519px" height="330px" viewBox="0 0 519 330" version="1.1" xmlns="http://www.w3.org/2000/svg" xmlns:xlink="http://www.w3.org/1999/xlink">
    <!-- Generator: Sketch 63.1 (92452) - https://sketch.com -->
    <title>未命名 2</title>
    <desc>Created with Sketch.</desc>
    <g id="页面-1" stroke="none" stroke-width="1" fill="none" fill-rule="evenodd">
        <g id="LL">
            <g>
                <line x1="100.5" y1="81.5" x2="60.5" y2="154.5" id="直线" stroke="#000000" stroke-width="2" stroke-linecap="square"></line>
                <line x1="60" y1="154" x2="20" y2="230" id="直线" stroke="#000000" stroke-width="2" stroke-linecap="square"></line>
                <g id="编组" transform="translate(81.000000, 59.000000)" fill="#FFFFFF" fill-rule="nonzero" stroke="#000000" stroke-width="2">
                    <circle id="椭圆形" cx="19" cy="19" r="19"></circle>
                </g>
                <g id="编组" transform="translate(41.000000, 135.000000)" fill="#FFFFFF" fill-rule="nonzero" stroke="#000000" stroke-width="2">
                    <circle id="椭圆形" cx="19" cy="19" r="19"></circle>
                </g>
                <g id="编组" transform="translate(1.000000, 211.000000)" fill="#FFFFFF" fill-rule="nonzero" stroke="#000000" stroke-width="2">
                    <circle id="椭圆形" cx="19" cy="19" r="19"></circle>
                </g>
                <text id="g" fill="#000000" font-family="FiraCode-Light_Retina, Fira Code" font-size="20" font-weight="300">
                    <tspan x="94" y="82">g</tspan>
                </text>
                <text id="f" fill="#000000" font-family="FiraCode-Light_Retina, Fira Code" font-size="20" font-weight="300">
                    <tspan x="54" y="162">f</tspan>
                </text>
                <line x1="100.5" y1="81.5" x2="60.5" y2="154.5" id="直线" stroke="#000000" stroke-width="2" stroke-linecap="square"></line>
                <line x1="60" y1="154" x2="20" y2="230" id="直线" stroke="#000000" stroke-width="2" stroke-linecap="square"></line>
                <path d="M226.135319,278.327113 L226.240261,278.378424 L238.240261,285.128424 C238.882154,285.489489 238.917815,286.382385 238.347243,286.802542 L238.240261,286.871576 L226.240261,293.621576 C225.758903,293.892339 225.149188,293.721619 224.878424,293.240261 C224.627001,292.793286 224.756245,292.235636 225.161393,291.941463 L225.259739,291.878424 L233.932,287 L231,287 C230.447715,287 230,286.552285 230,286 C230,285.487164 230.38604,285.064493 230.883379,285.006728 L231,285 L233.932,285 L225.259739,280.121576 C224.812764,279.870152 224.633634,279.326469 224.827113,278.864681 L224.878424,278.759739 C225.129848,278.312764 225.673531,278.133634 226.135319,278.327113 Z M225,285 C225.552285,285 226,285.447715 226,286 C226,286.512836 225.61396,286.935507 225.116621,286.993272 L225,287 L219,287 C218.447715,287 218,286.552285 218,286 C218,285.487164 218.38604,285.064493 218.883379,285.006728 L219,285 L225,285 Z M213,285 C213.552285,285 214,285.447715 214,286 C214,286.512836 213.61396,286.935507 213.116621,286.993272 L213,287 L207,287 C206.447715,287 206,286.552285 206,286 C206,285.487164 206.38604,285.064493 206.883379,285.006728 L207,285 L213,285 Z M201,285 C201.552285,285 202,285.447715 202,286 C202,286.512836 201.61396,286.935507 201.116621,286.993272 L201,287 L195,287 C194.447715,287 194,286.552285 194,286 C194,285.487164 194.38604,285.064493 194.883379,285.006728 L195,285 L201,285 Z M189,285 C189.552285,285 190,285.447715 190,286 C190,286.512836 189.61396,286.935507 189.116621,286.993272 L189,287 L183,287 C182.447715,287 182,286.552285 182,286 C182,285.487164 182.38604,285.064493 182.883379,285.006728 L183,285 L189,285 Z M177,285 C177.552285,285 178,285.447715 178,286 C178,286.512836 177.61396,286.935507 177.116621,286.993272 L177,287 L171,287 C170.447715,287 170,286.552285 170,286 C170,285.487164 170.38604,285.064493 170.883379,285.006728 L171,285 L177,285 Z M165,285 C165.552285,285 166,285.447715 166,286 C166,286.512836 165.61396,286.935507 165.116621,286.993272 L165,287 L159,287 C158.447715,287 158,286.552285 158,286 C158,285.487164 158.38604,285.064493 158.883379,285.006728 L159,285 L165,285 Z M153,285 C153.552285,285 154,285.447715 154,286 C154,286.512836 153.61396,286.935507 153.116621,286.993272 L153,287 L147,287 C146.447715,287 146,286.552285 146,286 C146,285.487164 146.38604,285.064493 146.883379,285.006728 L147,285 L153,285 Z M141,285 C141.552285,285 142,285.447715 142,286 C142,286.512836 141.61396,286.935507 141.116621,286.993272 L141,287 L135,287 C134.447715,287 134,286.552285 134,286 C134,285.487164 134.38604,285.064493 134.883379,285.006728 L135,285 L141,285 Z M129,285 C129.552285,285 130,285.447715 130,286 C130,286.512836 129.61396,286.935507 129.116621,286.993272 L129,287 L123,287 C122.447715,287 122,286.552285 122,286 C122,285.487164 122.38604,285.064493 122.883379,285.006728 L123,285 L129,285 Z M117,285 C117.552285,285 118,285.447715 118,286 C118,286.512836 117.61396,286.935507 117.116621,286.993272 L117,287 L111,287 C110.447715,287 110,286.552285 110,286 C110,285.487164 110.38604,285.064493 110.883379,285.006728 L111,285 L117,285 Z M105,285 C105.552285,285 106,285.447715 106,286 C106,286.512836 105.61396,286.935507 105.116621,286.993272 L105,287 L99,287 C98.4477153,287 98,286.552285 98,286 C98,285.487164 98.3860402,285.064493 98.8833789,285.006728 L99,285 L105,285 Z M93,285 C93.5522847,285 94,285.447715 94,286 C94,286.512836 93.6139598,286.935507 93.1166211,286.993272 L93,287 L88,287 C87.4477153,287 87,286.552285 87,286 C87,285.487164 87.3860402,285.064493 87.8833789,285.006728 L88,285 L93,285 Z" id="直线" fill="#000000" fill-rule="nonzero"></path>
                <g id="编组" transform="translate(81.000000, 59.000000)" fill="#C3EEFF" fill-rule="nonzero" stroke="#000000" stroke-width="2">
                    <circle id="椭圆形" cx="19" cy="19" r="19"></circle>
                </g>
                <g id="编组" transform="translate(41.000000, 135.000000)" fill="#FFFFFF" fill-rule="nonzero" stroke="#000000" stroke-width="2">
                    <circle id="椭圆形" cx="19" cy="19" r="19"></circle>
                </g>
                <g id="编组" transform="translate(1.000000, 211.000000)" fill="#FFFFFF" fill-rule="nonzero" stroke="#000000" stroke-width="2">
                    <circle id="椭圆形" cx="19" cy="19" r="19"></circle>
                </g>
                <text id="g" fill="#000000" font-family="FiraCode-Light_Retina, Fira Code" font-size="20" font-weight="300">
                    <tspan x="94" y="82">g</tspan>
                </text>
                <text id="f" fill="#000000" font-family="FiraCode-Light_Retina, Fira Code" font-size="20" font-weight="300">
                    <tspan x="54" y="162">f</tspan>
                </text>
                <text id="(a)" fill="#000000" font-family="FiraCode-Light_Retina, Fira Code" font-size="20" font-weight="300">
                    <tspan x="44" y="293">(a)</tspan>
                </text>
                <text id="R_rotate(g)" fill="#000000" font-family="FiraCode-Light_Retina, Fira Code" font-size="20" font-weight="300">
                    <tspan x="97" y="324">R_rotate(g)</tspan>
                </text>
                <text id="Case" fill="#000000" font-family="FiraCode-Light_Retina, Fira Code" font-size="20" font-weight="300">
                    <tspan x="0" y="20">Case</tspan>
                </text>
                <text id="1.LL" fill="#000000" font-family="FiraCode-Light_Retina, Fira Code" font-size="20" font-weight="300">
                    <tspan x="54" y="20">1.LL</tspan>
                </text>
                <path d="M423.162499,279.28877 L423.26726,279.340452 L435.243333,286.132812 C435.883947,286.496143 435.916452,287.389159 435.344399,287.807297 L435.237174,287.875953 L423.213397,294.583508 C422.731086,294.852569 422.121978,294.679696 421.852916,294.197384 C421.603074,293.749523 421.734287,293.192333 422.140472,292.899594 L422.23904,292.836903 L430.929,287.988 L427.996504,287.978792 C427.444223,287.976841 426.998092,287.527546 427.000044,286.975265 C427.001995,286.422984 427.45129,285.976853 428.003571,285.978805 L430.936,285.989 L422.280584,281.080127 C421.8345,280.827126 421.657293,280.282814 421.852402,279.821712 L421.904084,279.716952 C422.157085,279.270868 422.701397,279.093661 423.162499,279.28877 Z M416.003646,285.93639 L422.003608,285.957604 C422.55589,285.959555 423.00202,286.40885 423.000081,286.961131 C422.998257,287.473964 422.610725,287.895268 422.113186,287.951276 L421.996541,287.957591 L415.996579,287.93639 C415.444298,287.934438 414.998167,287.485144 415.000107,286.932863 C415.00207,286.380581 415.451365,285.934451 416.003646,285.93639 Z M404.003721,285.893988 L410.003683,285.915201 C410.555965,285.917153 411.002095,286.366447 411.000156,286.918728 C410.998331,287.431561 410.6108,287.852866 410.11326,287.908873 L409.996616,287.915189 L403.996654,287.893988 C403.444372,287.892036 402.998242,287.442741 403.000182,286.89046 C403.002145,286.338179 403.45144,285.892048 404.003721,285.893988 Z M392.003796,285.851585 L398.003758,285.872799 C398.55604,285.87475 399.00217,286.324045 399.000231,286.876326 C398.998406,287.389158 398.610875,287.810463 398.113335,287.86647 L397.996691,287.872786 L391.996729,287.851585 C391.444447,287.849633 390.998317,287.400339 391.000256,286.848057 C391.00222,286.295776 391.451514,285.849646 392.003796,285.851585 Z M380.003871,285.809183 L386.003833,285.830396 C386.556115,285.832348 387.002245,286.281642 387.000305,286.833923 C386.998481,287.346756 386.61095,287.768061 386.11341,287.824068 L385.996766,287.830384 L379.996804,287.809183 C379.444522,287.807231 378.998392,287.357936 379.000331,286.805655 C379.002295,286.253374 379.451589,285.807243 380.003871,285.809183 Z M368.003946,285.76678 L374.003908,285.787993 C374.556189,285.789945 375.00232,286.239239 375.00038,286.791521 C374.998556,287.304353 374.611025,287.725658 374.113485,287.781665 L373.996841,287.787981 L367.996878,287.76678 C367.444597,287.764828 366.998467,287.315534 367.000406,286.763252 C367.00237,286.210971 367.451664,285.764841 368.003946,285.76678 Z M356.004021,285.724378 L362.003983,285.745591 C362.556264,285.747542 363.002395,286.196837 363.000455,286.749118 C362.998631,287.261951 362.6111,287.683255 362.11356,287.739263 L361.996916,287.745578 L355.996953,287.724378 C355.444672,287.722426 354.998542,287.273131 355.000481,286.72085 C355.002445,286.168568 355.451739,285.722438 356.004021,285.724378 Z M344.004095,285.681975 L350.004058,285.703188 C350.556339,285.70514 351.00247,286.154434 351.00053,286.706716 C350.998706,287.219548 350.611175,287.640853 350.113635,287.69686 L349.996991,287.703176 L343.997028,287.681975 C343.444747,287.680023 342.998617,287.230729 343.000556,286.678447 C343.00252,286.126166 343.451814,285.680036 344.004095,285.681975 Z M332.00417,285.639572 L338.004133,285.660786 C338.556414,285.662737 339.002545,286.112032 339.000605,286.664313 C338.998781,287.177146 338.61125,287.59845 338.11371,287.654458 L337.997066,287.660773 L331.997103,287.639572 C331.444822,287.63762 330.998692,287.188326 331.000631,286.636045 C331.002595,286.083763 331.451889,285.637633 332.00417,285.639572 Z M320.004245,285.59717 L326.004208,285.618383 C326.556489,285.620335 327.00262,286.069629 327.00068,286.62191 C326.998856,287.134743 326.611325,287.556048 326.113785,287.612055 L325.997141,287.618371 L319.997178,287.59717 C319.444897,287.595218 318.998766,287.145923 319.000706,286.593642 C319.002669,286.041361 319.451964,285.59523 320.004245,285.59717 Z M308.00432,285.554767 L314.004283,285.575981 C314.556564,285.577932 315.002694,286.027227 315.000755,286.579508 C314.998931,287.092341 314.611399,287.513645 314.11386,287.569653 L313.997216,287.575968 L307.997253,287.554767 C307.444972,287.552815 306.998841,287.103521 307.000781,286.55124 C307.002744,285.998958 307.452039,285.552828 308.00432,285.554767 Z M296.004395,285.512365 L302.004358,285.533578 C302.556639,285.53553 303.002769,285.984824 303.00083,286.537105 C302.999006,287.049938 302.611474,287.471243 302.113935,287.52725 L301.997291,287.533566 L295.997328,287.512365 C295.445047,287.510413 294.998916,287.061118 295.000856,286.508837 C295.002819,285.956556 295.452114,285.510425 296.004395,285.512365 Z" id="直线" fill="#000000" fill-rule="nonzero"></path>
                <text id="R_rotate(f)" fill="#000000" font-family="FiraCode-Light_Retina, Fira Code" font-size="20" font-weight="300">
                    <tspan x="297" y="324">R_rotate(f)</tspan>
                </text>
                <text id="v" fill="#000000" font-family="FiraCode-Light_Retina, Fira Code" font-size="20" font-weight="300">
                    <tspan x="14" y="237">v</tspan>
                </text>
                <g id="编组" transform="translate(400.000000, 59.000000)" fill="#FFFFFF" fill-rule="nonzero" stroke="#000000" stroke-width="2">
                    <circle id="椭圆形" cx="19" cy="19" r="19"></circle>
                </g>
                <g id="编组" transform="translate(440.000000, 135.000000)" fill="#FFFFFF" fill-rule="nonzero" stroke="#000000" stroke-width="2">
                    <circle id="椭圆形" cx="19" cy="19" r="19"></circle>
                </g>
                <g id="编组" transform="translate(480.000000, 211.500000)" fill="#FFFFFF" fill-rule="nonzero" stroke="#000000" stroke-width="2">
                    <circle id="椭圆形" cx="19" cy="19" r="19"></circle>
                </g>
                <text id="g" fill="#000000" font-family="FiraCode-Light_Retina, Fira Code" font-size="20" font-weight="300">
                    <tspan x="413" y="82">g</tspan>
                </text>
                <text id="f" fill="#000000" font-family="FiraCode-Light_Retina, Fira Code" font-size="20" font-weight="300">
                    <tspan x="453" y="162">f</tspan>
                </text>
                <line x1="419" y1="78" x2="459.5" y2="154.5" id="直线" stroke="#000000" stroke-width="2" stroke-linecap="square"></line>
                <line x1="459" y1="154" x2="499" y2="230.5" id="直线" stroke="#000000" stroke-width="2" stroke-linecap="square"></line>
                <g id="编组" transform="translate(400.000000, 59.000000)" fill="#C3EEFF" fill-rule="nonzero" stroke="#000000" stroke-width="2">
                    <circle id="椭圆形" cx="19" cy="19" r="19"></circle>
                </g>
                <g id="编组" transform="translate(440.000000, 135.000000)" fill="#FFEEBF" fill-rule="nonzero" stroke="#000000" stroke-width="2">
                    <circle id="椭圆形" cx="19" cy="19" r="19"></circle>
                </g>
                <g id="编组" transform="translate(480.000000, 211.500000)" fill="#FFFFFF" fill-rule="nonzero" stroke="#000000" stroke-width="2">
                    <circle id="椭圆形" cx="19" cy="19" r="19"></circle>
                </g>
                <text id="v" fill="#000000" font-family="FiraCode-Light_Retina, Fira Code" font-size="20" font-weight="300">
                    <tspan x="413" y="85">v</tspan>
                </text>
                <text id="f" fill="#000000" font-family="FiraCode-Light_Retina, Fira Code" font-size="20" font-weight="300">
                    <tspan x="453" y="162">f</tspan>
                </text>
                <text id="(c)" fill="#000000" font-family="FiraCode-Light_Retina, Fira Code" font-size="20" font-weight="300">
                    <tspan x="443" y="293">(c)</tspan>
                </text>
                <text id="g" fill="#000000" font-family="FiraCode-Light_Retina, Fira Code" font-size="20" font-weight="300">
                    <tspan x="493" y="235.5">g</tspan>
                </text>
                <line x1="266.5" y1="81.5" x2="226.5" y2="154.5" id="直线" stroke="#000000" stroke-width="2" stroke-linecap="square"></line>
                <g id="编组" transform="translate(247.000000, 59.000000)" fill="#FFFFFF" fill-rule="nonzero" stroke="#000000" stroke-width="2">
                    <circle id="椭圆形" cx="19" cy="19" r="19"></circle>
                </g>
                <g id="编组" transform="translate(207.000000, 135.000000)" fill="#FFFFFF" fill-rule="nonzero" stroke="#000000" stroke-width="2">
                    <circle id="椭圆形" cx="19" cy="19" r="19"></circle>
                </g>
                <text id="g" fill="#000000" font-family="FiraCode-Light_Retina, Fira Code" font-size="20" font-weight="300">
                    <tspan x="260" y="82">g</tspan>
                </text>
                <line x1="266" y1="78" x2="306" y2="154.5" id="直线" stroke="#000000" stroke-width="2" stroke-linecap="square"></line>
                <text id="f" fill="#000000" font-family="FiraCode-Light_Retina, Fira Code" font-size="20" font-weight="300">
                    <tspan x="220" y="162">f</tspan>
                </text>
                <line x1="266.5" y1="81.5" x2="226.5" y2="154.5" id="直线" stroke="#000000" stroke-width="2" stroke-linecap="square"></line>
                <g id="编组" transform="translate(247.000000, 59.000000)" fill="#FFEEBF" fill-rule="nonzero" stroke="#000000" stroke-width="2">
                    <circle id="椭圆形" cx="19" cy="19" r="19"></circle>
                </g>
                <g id="编组" transform="translate(207.000000, 135.000000)" fill="#FFFFFF" fill-rule="nonzero" stroke="#000000" stroke-width="2">
                    <circle id="椭圆形" cx="19" cy="19" r="19"></circle>
                </g>
                <text id="f" fill="#000000" font-family="FiraCode-Light_Retina, Fira Code" font-size="20" font-weight="300">
                    <tspan x="260" y="85">f</tspan>
                </text>
                <text id="v" fill="#000000" font-family="FiraCode-Light_Retina, Fira Code" font-size="20" font-weight="300">
                    <tspan x="220" y="162">v</tspan>
                </text>
                <text id="(b)" fill="#000000" font-family="FiraCode-Light_Retina, Fira Code" font-size="20" font-weight="300">
                    <tspan x="248" y="293">(b)</tspan>
                </text>
                <g id="编组" transform="translate(287.000000, 135.500000)" fill="#FFFFFF" fill-rule="nonzero" stroke="#000000" stroke-width="2">
                    <circle id="椭圆形" cx="19" cy="19" r="19"></circle>
                </g>
                <g id="编组" transform="translate(287.000000, 135.500000)" fill="#C3EEFF" fill-rule="nonzero" stroke="#000000" stroke-width="2">
                    <circle id="椭圆形" cx="19" cy="19" r="19"></circle>
                </g>
                <text id="g" fill="#000000" font-family="FiraCode-Light_Retina, Fira Code" font-size="20" font-weight="300">
                    <tspan x="300" y="158">g</tspan>
                </text>
            </g>
            <path d="M56.0038275,221.91152 C56.1934654,222.388005 55.991085,222.923468 55.5503591,223.161046 L55.4444921,223.210421 L49.8697828,225.429118 C49.356645,225.633344 48.7751072,225.382921 48.5708818,224.869783 C48.3812439,224.393298 48.5836243,223.857835 49.0243502,223.620257 L49.1302172,223.570882 L54.7049264,221.352185 C55.2180643,221.147959 55.7996021,221.398382 56.0038275,221.91152 Z M67.1532461,217.474126 C67.342884,217.950611 67.1405036,218.486074 66.6997777,218.723652 L66.5939107,218.773027 L61.0192014,220.991724 C60.5060636,221.19595 59.9245258,220.945527 59.7203004,220.432389 C59.5306625,219.955904 59.7330428,219.420441 60.1737687,219.182863 L60.2796357,219.133488 L65.854345,216.914791 C66.3674828,216.710565 66.9490206,216.960988 67.1532461,217.474126 Z M78.3026646,213.036732 C78.4923025,213.513217 78.2899221,214.04868 77.8491963,214.286258 L77.7433293,214.335633 L72.16862,216.55433 C71.6554821,216.758556 71.0739443,216.508133 70.8697189,215.994995 C70.680081,215.51851 70.8824614,214.983047 71.3231873,214.745469 L71.4290543,214.696094 L77.0037636,212.477397 C77.5169014,212.273171 78.0984392,212.523594 78.3026646,213.036732 Z M89.4520832,208.599338 C89.6417211,209.075823 89.4393407,209.611286 88.9986148,209.848864 L88.8927478,209.898239 L83.3180385,212.116936 C82.8049007,212.321162 82.2233629,212.070739 82.0191375,211.557601 C81.8294996,211.081116 82.03188,210.545653 82.4726059,210.308075 L82.5784729,210.2587 L88.1531822,208.040003 C88.66632,207.835777 89.2478578,208.0862 89.4520832,208.599338 Z M100.601502,204.161944 C100.79114,204.638429 100.588759,205.173892 100.148033,205.41147 L100.042166,205.460845 L94.4674571,207.679542 C93.9543193,207.883768 93.3727815,207.633345 93.1685561,207.120207 C92.9789182,206.643722 93.1812985,206.108259 93.6220244,205.870681 L93.7278914,205.821306 L99.3026007,203.602609 C99.8157385,203.398383 100.397276,203.648806 100.601502,204.161944 Z M111.75092,199.72455 C111.940558,200.201035 111.738178,200.736498 111.297452,200.974076 L111.191585,201.023451 L105.616876,203.242148 C105.103738,203.446374 104.5222,203.195951 104.317975,202.682813 C104.128337,202.206328 104.330717,201.670865 104.771443,201.433287 L104.87731,201.383912 L110.452019,199.165215 C110.965157,198.960989 111.546695,199.211412 111.75092,199.72455 Z M122.900339,195.287156 C123.089977,195.763641 122.887596,196.299104 122.446871,196.536682 L122.341004,196.586057 L116.766294,198.804754 C116.253156,199.00898 115.671619,198.758557 115.467393,198.245419 C115.277755,197.768934 115.480136,197.233471 115.920862,196.995893 L116.026729,196.946518 L121.601438,194.727821 C122.114576,194.523595 122.696113,194.774018 122.900339,195.287156 Z M134.049757,190.849762 C134.239395,191.326247 134.037015,191.86171 133.596289,192.099288 L133.490422,192.148663 L127.915713,194.36736 C127.402575,194.571586 126.821037,194.321163 126.616812,193.808025 C126.427174,193.33154 126.629554,192.796077 127.07028,192.558499 L127.176147,192.509124 L132.750856,190.290427 C133.263994,190.086201 133.845532,190.336624 134.049757,190.849762 Z M145.199176,186.412368 C145.388814,186.888853 145.186434,187.424316 144.745708,187.661894 L144.639841,187.711269 L139.065131,189.929966 C138.551994,190.134192 137.970456,189.883769 137.76623,189.370631 C137.576592,188.894146 137.778973,188.358683 138.219699,188.121105 L138.325566,188.07173 L143.900275,185.853033 C144.413413,185.648807 144.994951,185.89923 145.199176,186.412368 Z M156.348595,181.974974 C156.538232,182.451459 156.335852,182.986922 155.895126,183.2245 L155.789259,183.273875 L150.21455,185.492572 C149.701412,185.696798 149.119874,185.446375 148.915649,184.933237 C148.726011,184.456752 148.928391,183.921289 149.369117,183.683711 L149.474984,183.634336 L155.049694,181.415639 C155.562831,181.211413 156.144369,181.461836 156.348595,181.974974 Z M167.498013,177.53758 C167.687651,178.014065 167.485271,178.549528 167.044545,178.787106 L166.938678,178.836481 L161.363969,181.055178 C160.850831,181.259404 160.269293,181.008981 160.065067,180.495843 C159.87543,180.019358 160.07781,179.483895 160.518536,179.246317 L160.624403,179.196942 L166.199112,176.978245 C166.71225,176.774019 167.293788,177.024442 167.498013,177.53758 Z M178.647432,173.100186 C178.83707,173.576671 178.634689,174.112134 178.193963,174.349712 L178.088096,174.399087 L172.513387,176.617784 C172.000249,176.82201 171.418711,176.571587 171.214486,176.058449 C171.024848,175.581964 171.227229,175.046501 171.667954,174.808923 L171.773821,174.759548 L177.348531,172.540851 C177.861669,172.336625 178.443206,172.587048 178.647432,173.100186 Z M186.068125,161.888554 L186.184603,161.897422 L199.830056,163.731576 C200.56426,163.830264 200.927538,164.655735 200.541825,165.258059 L200.474643,165.351169 L191.821259,176.060111 C191.474144,176.489681 190.844517,176.556524 190.414948,176.209409 C190.018422,175.888996 189.930965,175.327862 190.192872,174.905561 L190.26565,174.803098 L196.52,167.062 L194.812224,167.742996 C194.299086,167.947221 193.717549,167.696799 193.513323,167.183661 C193.323685,166.707176 193.526066,166.171713 193.966792,165.934135 L194.072659,165.88476 L195.78,165.204 L185.918169,163.879596 C185.409904,163.811277 185.042427,163.372371 185.051431,162.87177 L185.060299,162.755292 C185.123362,162.286124 185.502193,161.936918 185.953837,161.893052 L186.068125,161.888554 Z M189.79685,168.662792 C189.986488,169.139277 189.784108,169.67474 189.343382,169.912318 L189.237515,169.961693 L189.005622,170.053985 L183.662806,172.18039 C183.149668,172.384615 182.56813,172.134193 182.363905,171.621055 C182.174267,171.14457 182.376647,170.609107 182.817373,170.371529 L182.92324,170.322154 L188.266056,168.195749 L188.497949,168.103457 C189.011087,167.899231 189.592625,168.149654 189.79685,168.662792 Z" id="直线-2" fill-opacity="0.25" fill="#000000" fill-rule="nonzero"></path>
            <path d="M256.756435,140.668081 C256.945592,141.144758 256.742672,141.680016 256.301707,141.917149 L256.19579,141.966418 L250.618846,144.179491 C250.105502,144.383198 249.524217,144.132189 249.320509,143.618846 C249.131352,143.142169 249.334272,142.606911 249.775238,142.369778 L249.881154,142.320509 L255.458099,140.107436 C255.971442,139.903728 256.552727,140.154738 256.756435,140.668081 Z M267.910324,136.241935 C268.099481,136.718611 267.89656,137.25387 267.455595,137.491003 L267.349678,137.540271 L261.772734,139.753344 C261.259391,139.957052 260.678106,139.706043 260.474398,139.192699 C260.285241,138.716023 260.488161,138.180765 260.929126,137.943632 L261.035043,137.894363 L266.611987,135.68129 C267.125331,135.477582 267.706616,135.728592 267.910324,136.241935 Z M279.064212,131.815789 C279.253369,132.292465 279.050449,132.827723 278.609484,133.064857 L278.503567,133.114125 L272.926623,135.327198 C272.413279,135.530906 271.831994,135.279897 271.628286,134.766553 C271.439129,134.289877 271.64205,133.754619 272.083015,133.517485 L272.188932,133.468217 L277.765876,131.255144 C278.279219,131.051436 278.860504,131.302445 279.064212,131.815789 Z M290.218101,127.389643 C290.407258,127.866319 290.204337,128.401577 289.763372,128.63871 L289.657455,128.687979 L284.080511,130.901052 C283.567168,131.10476 282.985883,130.85375 282.782175,130.340407 C282.593018,129.863731 282.795938,129.328472 283.236903,129.091339 L283.34282,129.042071 L288.919764,126.828997 C289.433108,126.62529 290.014393,126.876299 290.218101,127.389643 Z M301.371989,122.963496 C301.561146,123.440173 301.358226,123.975431 300.917261,124.212564 L300.811344,124.261833 L295.2344,126.474906 C294.721056,126.678613 294.139771,126.427604 293.936063,125.914261 C293.746906,125.437584 293.949827,124.902326 294.390792,124.665193 L294.496709,124.615924 L300.073653,122.402851 C300.586996,122.199143 301.168281,122.450153 301.371989,122.963496 Z M312.525878,118.53735 C312.715035,119.014026 312.512115,119.549285 312.071149,119.786418 L311.965232,119.835686 L306.388288,122.048759 C305.874945,122.252467 305.29366,122.001458 305.089952,121.488114 C304.900795,121.011438 305.103715,120.47618 305.54468,120.239047 L305.650597,120.189778 L311.227541,117.976705 C311.740885,117.772997 312.32217,118.024007 312.525878,118.53735 Z M323.679766,114.111204 C323.868923,114.58788 323.666003,115.123138 323.225038,115.360272 L323.119121,115.40954 L317.542177,117.622613 C317.028833,117.826321 316.447548,117.575312 316.24384,117.061968 C316.054683,116.585292 316.257604,116.050034 316.698569,115.8129 L316.804486,115.763632 L322.38143,113.550559 C322.894773,113.346851 323.476058,113.59786 323.679766,114.111204 Z M334.833655,109.685058 C335.022812,110.161734 334.819892,110.696992 334.378926,110.934125 L334.27301,110.983394 L328.696065,113.196467 C328.182722,113.400175 327.601437,113.149165 327.397729,112.635822 C327.208572,112.159146 327.411492,111.623887 327.852457,111.386754 L327.958374,111.337486 L333.535318,109.124412 C334.048662,108.920705 334.629947,109.171714 334.833655,109.685058 Z M345.987543,105.258911 C346.1767,105.735588 345.97378,106.270846 345.532815,106.507979 L345.426898,106.557248 L339.849954,108.770321 C339.33661,108.974029 338.755325,108.723019 338.551618,108.209676 C338.36246,107.732999 338.565381,107.197741 339.006346,106.960608 L339.112263,106.911339 L344.689207,104.698266 C345.202551,104.494558 345.783835,104.745568 345.987543,105.258911 Z M357.141432,100.832765 C357.330589,101.309441 357.127669,101.8447 356.686703,102.081833 L356.580787,102.131101 L351.003842,104.344175 C350.490499,104.547882 349.909214,104.296873 349.705506,103.783529 C349.516349,103.306853 349.719269,102.771595 350.160235,102.534462 L350.266151,102.485193 L355.843096,100.27212 C356.356439,100.068412 356.937724,100.319422 357.141432,100.832765 Z M368.29532,96.4066189 C368.484478,96.8832951 368.281557,97.4185533 367.840592,97.6556866 L367.734675,97.7049552 L362.157731,99.9180283 C361.644387,100.121736 361.063102,99.8707266 360.859395,99.3573831 C360.670237,98.8807069 360.873158,98.3454487 361.314123,98.1083154 L361.42004,98.0590469 L366.996984,95.8459737 C367.510328,95.642266 368.091613,95.8932754 368.29532,96.4066189 Z M379.07127,83.8755122 L379.187739,83.8844978 L392.831335,85.7324138 C393.565439,85.8318424 393.927884,86.6576796 393.541563,87.2596136 L393.474288,87.3526566 L384.810107,98.0528651 C384.462559,98.4820842 383.832865,98.5482921 383.403646,98.2007444 C383.007444,97.8799312 382.920553,97.3187093 383.182885,96.8966733 L383.255767,96.7942837 L389.516,89.061 L384.465508,91.0657358 C383.952164,91.2694435 383.370879,91.0184341 383.167172,90.5050906 C382.978014,90.0284144 383.180935,89.4931562 383.6219,89.2560229 L383.727817,89.2067544 L388.779,87.201 L378.919306,85.8664018 C378.41111,85.7975708 378.044076,85.358294 378.053585,84.8577022 L378.06257,84.7412333 C378.126107,84.2721295 378.505289,83.9233056 378.956978,83.8798949 L379.07127,83.8755122 Z M379.449209,91.9804727 C379.638366,92.4571488 379.435446,92.9924071 378.99448,93.2295404 L378.888564,93.2788089 L373.311619,95.491882 C372.798276,95.6955898 372.216991,95.4445804 372.013283,94.9312368 C371.824126,94.4545607 372.027046,93.9193024 372.468012,93.6821692 L372.573928,93.6329006 L378.150873,91.4198275 C378.664216,91.2161197 379.245501,91.4671291 379.449209,91.9804727 Z" id="直线-2" fill-opacity="0.25" fill="#000000" fill-rule="nonzero"></path>
        </g>
    </g>
</svg>