<?xml version="1.0" encoding="UTF-8"?>
<svg width="521px" height="330px" viewBox="0 0 521 330" version="1.1" xmlns="http://www.w3.org/2000/svg" xmlns:xlink="http://www.w3.org/1999/xlink">
    <!-- Generator: Sketch 63.1 (92452) - https://sketch.com -->
    <title>未命名</title>
    <desc>Created with Sketch.</desc>
    <g id="页面-1" stroke="none" stroke-width="1" fill="none" fill-rule="evenodd">
        <g id="LR">
            <line x1="89.5" y1="81.5" x2="49.5" y2="154.5" id="直线" stroke="#000000" stroke-width="2" stroke-linecap="square"></line>
            <g id="编组" transform="translate(70.000000, 59.000000)" fill="#FFFFFF" fill-rule="nonzero" stroke="#000000" stroke-width="2">
                <circle id="椭圆形" cx="19" cy="19" r="19"></circle>
            </g>
            <g id="编组" transform="translate(30.000000, 135.000000)" fill="#FFFFFF" fill-rule="nonzero" stroke="#000000" stroke-width="2">
                <circle id="椭圆形" cx="19" cy="19" r="19"></circle>
            </g>
            <text id="g" fill="#000000" font-family="FiraCode-Light_Medium, Fira Code" font-size="20" font-weight="400">
                <tspan x="83" y="82">g</tspan>
            </text>
            <text id="f" fill="#000000" font-family="FiraCode-Light_Medium, Fira Code" font-size="20" font-weight="400">
                <tspan x="43" y="162">f</tspan>
            </text>
            <line x1="89.5" y1="81.5" x2="49.5" y2="154.5" id="直线" stroke="#000000" stroke-width="2" stroke-linecap="square"></line>
            <line x1="49" y1="154" x2="87" y2="230" id="直线" stroke="#000000" stroke-width="2" stroke-linecap="square"></line>
            <path d="M226.135319,278.327113 L226.240261,278.378424 L238.240261,285.128424 C238.882154,285.489489 238.917815,286.382385 238.347243,286.802542 L238.240261,286.871576 L226.240261,293.621576 C225.758903,293.892339 225.149188,293.721619 224.878424,293.240261 C224.627001,292.793286 224.756245,292.235636 225.161393,291.941463 L225.259739,291.878424 L233.932,287 L231,287 C230.447715,287 230,286.552285 230,286 C230,285.487164 230.38604,285.064493 230.883379,285.006728 L231,285 L233.932,285 L225.259739,280.121576 C224.812764,279.870152 224.633634,279.326469 224.827113,278.864681 L224.878424,278.759739 C225.129848,278.312764 225.673531,278.133634 226.135319,278.327113 Z M225,285 C225.552285,285 226,285.447715 226,286 C226,286.512836 225.61396,286.935507 225.116621,286.993272 L225,287 L219,287 C218.447715,287 218,286.552285 218,286 C218,285.487164 218.38604,285.064493 218.883379,285.006728 L219,285 L225,285 Z M213,285 C213.552285,285 214,285.447715 214,286 C214,286.512836 213.61396,286.935507 213.116621,286.993272 L213,287 L207,287 C206.447715,287 206,286.552285 206,286 C206,285.487164 206.38604,285.064493 206.883379,285.006728 L207,285 L213,285 Z M201,285 C201.552285,285 202,285.447715 202,286 C202,286.512836 201.61396,286.935507 201.116621,286.993272 L201,287 L195,287 C194.447715,287 194,286.552285 194,286 C194,285.487164 194.38604,285.064493 194.883379,285.006728 L195,285 L201,285 Z M189,285 C189.552285,285 190,285.447715 190,286 C190,286.512836 189.61396,286.935507 189.116621,286.993272 L189,287 L183,287 C182.447715,287 182,286.552285 182,286 C182,285.487164 182.38604,285.064493 182.883379,285.006728 L183,285 L189,285 Z M177,285 C177.552285,285 178,285.447715 178,286 C178,286.512836 177.61396,286.935507 177.116621,286.993272 L177,287 L171,287 C170.447715,287 170,286.552285 170,286 C170,285.487164 170.38604,285.064493 170.883379,285.006728 L171,285 L177,285 Z M165,285 C165.552285,285 166,285.447715 166,286 C166,286.512836 165.61396,286.935507 165.116621,286.993272 L165,287 L159,287 C158.447715,287 158,286.552285 158,286 C158,285.487164 158.38604,285.064493 158.883379,285.006728 L159,285 L165,285 Z M153,285 C153.552285,285 154,285.447715 154,286 C154,286.512836 153.61396,286.935507 153.116621,286.993272 L153,287 L147,287 C146.447715,287 146,286.552285 146,286 C146,285.487164 146.38604,285.064493 146.883379,285.006728 L147,285 L153,285 Z M141,285 C141.552285,285 142,285.447715 142,286 C142,286.512836 141.61396,286.935507 141.116621,286.993272 L141,287 L135,287 C134.447715,287 134,286.552285 134,286 C134,285.487164 134.38604,285.064493 134.883379,285.006728 L135,285 L141,285 Z M129,285 C129.552285,285 130,285.447715 130,286 C130,286.512836 129.61396,286.935507 129.116621,286.993272 L129,287 L123,287 C122.447715,287 122,286.552285 122,286 C122,285.487164 122.38604,285.064493 122.883379,285.006728 L123,285 L129,285 Z M117,285 C117.552285,285 118,285.447715 118,286 C118,286.512836 117.61396,286.935507 117.116621,286.993272 L117,287 L111,287 C110.447715,287 110,286.552285 110,286 C110,285.487164 110.38604,285.064493 110.883379,285.006728 L111,285 L117,285 Z M105,285 C105.552285,285 106,285.447715 106,286 C106,286.512836 105.61396,286.935507 105.116621,286.993272 L105,287 L99,287 C98.4477153,287 98,286.552285 98,286 C98,285.487164 98.3860402,285.064493 98.8833789,285.006728 L99,285 L105,285 Z M93,285 C93.5522847,285 94,285.447715 94,286 C94,286.512836 93.6139598,286.935507 93.1166211,286.993272 L93,287 L88,287 C87.4477153,287 87,286.552285 87,286 C87,285.487164 87.3860402,285.064493 87.8833789,285.006728 L88,285 L93,285 Z" id="直线" fill="#000000" fill-rule="nonzero"></path>
            <path d="M118.886325,217.924721 C119.081769,218.398854 118.885945,218.936749 118.448154,219.179693 L118.342898,219.230358 L112.795707,221.516986 C112.285102,221.727464 111.700549,221.484164 111.49007,220.973559 C111.294626,220.499426 111.49045,219.961531 111.928241,219.718587 L112.033497,219.667922 L117.580689,217.381294 C118.091293,217.170815 118.675847,217.414116 118.886325,217.924721 Z M129.980708,213.351464 C130.176152,213.825597 129.980327,214.363492 129.542536,214.606436 L129.43728,214.657101 L123.890089,216.943729 C123.379484,217.154207 122.794931,216.910907 122.584453,216.400302 C122.389008,215.926169 122.584833,215.388274 123.022624,215.14533 L123.12788,215.094665 L128.675071,212.808037 C129.185676,212.597559 129.770229,212.840859 129.980708,213.351464 Z M141.07509,208.778207 C141.270534,209.25234 141.07471,209.790235 140.636919,210.033179 L140.531663,210.083844 L134.984472,212.370472 C134.473867,212.580951 133.889313,212.33765 133.678835,211.827045 C133.483391,211.352912 133.679215,210.815017 134.117006,210.572073 L134.222262,210.521408 L139.769453,208.23478 C140.280058,208.024302 140.864612,208.267602 141.07509,208.778207 Z M152.169472,204.20495 C152.364917,204.679083 152.169092,205.216978 151.731301,205.459922 L151.626045,205.510587 L146.078854,207.797215 C145.568249,208.007694 144.983696,207.764393 144.773217,207.253788 C144.577773,206.779655 144.773598,206.24176 145.211389,205.998816 L145.316645,205.948152 L150.863836,203.661523 C151.374441,203.451045 151.958994,203.694345 152.169472,204.20495 Z M163.263855,199.631693 C163.459299,200.105826 163.263475,200.643721 162.825684,200.886665 L162.720428,200.93733 L157.173237,203.223958 C156.662632,203.434437 156.078078,203.191136 155.8676,202.680531 C155.672156,202.206398 155.86798,201.668503 156.305771,201.42556 L156.411027,201.374895 L161.958218,199.088266 C162.468823,198.877788 163.053377,199.121089 163.263855,199.631693 Z M174.358237,195.058437 C174.553681,195.53257 174.357857,196.070464 173.920066,196.313408 L173.81481,196.364073 L168.267619,198.650702 C167.757014,198.86118 167.172461,198.617879 166.961982,198.107274 C166.766538,197.633141 166.962363,197.095247 167.400153,196.852303 L167.505409,196.801638 L173.052601,194.515009 C173.563206,194.304531 174.147759,194.547832 174.358237,195.058437 Z M185.45262,190.48518 C185.648064,190.959313 185.452239,191.497208 185.014449,191.740151 L184.909193,191.790816 L179.362001,194.077445 C178.851397,194.287923 178.266843,194.044622 178.056365,193.534018 C177.860921,193.059885 178.056745,192.52199 178.494536,192.279046 L178.599792,192.228381 L184.146983,189.941753 C184.657588,189.731274 185.242141,189.974575 185.45262,190.48518 Z M196.547002,185.911923 C196.742446,186.386056 196.546622,186.923951 196.108831,187.166895 L196.003575,187.217559 L190.456384,189.504188 C189.945779,189.714666 189.361226,189.471366 189.150747,188.960761 C188.955303,188.486628 189.151127,187.948733 189.588918,187.705789 L189.694174,187.655124 L195.241366,185.368496 C195.75197,185.158017 196.336524,185.401318 196.547002,185.911923 Z M207.641385,181.338666 C207.836829,181.812799 207.641004,182.350694 207.203213,182.593638 L207.097957,182.644303 L201.550766,184.930931 C201.040161,185.141409 200.455608,184.898109 200.24513,184.387504 C200.049685,183.913371 200.24551,183.375476 200.683301,183.132532 L200.788557,183.081867 L206.335748,180.795239 C206.846353,180.58476 207.430906,180.828061 207.641385,181.338666 Z M218.735767,176.765409 C218.931211,177.239542 218.735387,177.777437 218.297596,178.020381 L218.19234,178.071046 L212.645149,180.357674 C212.134544,180.568152 211.54999,180.324852 211.339512,179.814247 C211.144068,179.340114 211.339892,178.802219 211.777683,178.559275 L211.882939,178.50861 L217.43013,176.221982 C217.940735,176.011504 218.525289,176.254804 218.735767,176.765409 Z M227.031082,165.046753 L227.14766,165.054198 L240.814499,166.721531 C241.549854,166.811243 241.923189,167.632215 241.544862,168.239205 L241.478823,168.33313 L232.956897,179.146977 C232.615056,179.580754 231.986293,179.655283 231.552515,179.313442 C231.152105,178.997896 231.0578,178.437873 231.314528,178.012404 L231.38605,177.90906 L237.544,170.093 L234.833914,171.21116 C234.323309,171.421639 233.738755,171.178338 233.528277,170.667733 C233.332833,170.1936 233.528657,169.655705 233.966448,169.412761 L234.071704,169.362097 L236.783,168.244 L226.905459,167.039478 C226.396397,166.977374 226.023587,166.542989 226.026458,166.042315 L226.033919,165.925738 C226.091247,165.455835 226.465783,165.102027 226.916858,165.052647 L227.031082,165.046753 Z M229.830149,172.192152 C230.025594,172.666285 229.829769,173.20418 229.391978,173.447124 L229.286722,173.497789 L223.739531,175.784417 C223.228926,175.994896 222.644373,175.751595 222.433894,175.24099 C222.23845,174.766857 222.434275,174.228962 222.872066,173.986018 L222.977322,173.935353 L228.524513,171.648725 C229.035118,171.438247 229.619671,171.681547 229.830149,172.192152 Z" id="直线" fill-opacity="0.25" fill="#000000" fill-rule="nonzero"></path>
            <path d="M302.858982,142.017834 C303.063463,142.48814 302.877967,143.029684 302.444905,143.28096 L302.340638,143.33363 L296.838218,145.725987 C296.331734,145.946197 295.742632,145.714127 295.522422,145.207643 C295.31794,144.737336 295.503436,144.195793 295.936498,143.944516 L296.040765,143.891847 L301.543186,141.49949 C302.04967,141.27928 302.638772,141.51135 302.858982,142.017834 Z M313.863823,137.233121 C314.068304,137.703427 313.882808,138.244971 313.449746,138.496247 L313.345479,138.548917 L307.843058,140.941273 C307.336575,141.161484 306.747473,140.929413 306.527262,140.422929 C306.322781,139.952623 306.508277,139.41108 306.941339,139.159803 L307.045606,139.107133 L312.548026,136.714777 C313.05451,136.494566 313.643612,136.726637 313.863823,137.233121 Z M324.868663,132.448407 C325.073144,132.918714 324.887649,133.460257 324.454587,133.711534 L324.350319,133.764203 L318.847899,136.15656 C318.341415,136.37677 317.752313,136.1447 317.532103,135.638216 C317.327622,135.16791 317.513118,134.626366 317.94618,134.37509 L318.050447,134.32242 L323.552867,131.930063 C324.059351,131.709853 324.648453,131.941923 324.868663,132.448407 Z M335.873504,127.663694 C336.077985,128.134 335.892489,128.675544 335.459427,128.92682 L335.35516,128.97949 L329.85274,131.371847 C329.346256,131.592057 328.757154,131.359987 328.536944,130.853503 C328.332462,130.383196 328.517958,129.841653 328.95102,129.590376 L329.055287,129.537707 L334.557708,127.14535 C335.064192,126.92514 335.653294,127.15721 335.873504,127.663694 Z M346.878345,122.878981 C347.082826,123.349287 346.89733,123.89083 346.464268,124.142107 L346.360001,124.194777 L340.85758,126.587133 C340.351097,126.807344 339.761995,126.575273 339.541784,126.068789 C339.337303,125.598483 339.522799,125.05694 339.955861,124.805663 L340.060128,124.752993 L345.562548,122.360637 C346.069032,122.140426 346.658134,122.372497 346.878345,122.878981 Z M357.883185,118.094267 C358.087666,118.564574 357.902171,119.106117 357.469109,119.357394 L357.364841,119.410063 L351.862421,121.80242 C351.355937,122.02263 350.766835,121.79056 350.546625,121.284076 C350.342144,120.81377 350.52764,120.272226 350.960702,120.02095 L351.064969,119.96828 L356.567389,117.575923 C357.073873,117.355713 357.662975,117.587783 357.883185,118.094267 Z M368.888026,113.309554 C369.092507,113.77986 368.907011,114.321404 368.473949,114.57268 L368.369682,114.62535 L362.867262,117.017707 C362.360778,117.237917 361.771676,117.005847 361.551466,116.499363 C361.346985,116.029056 361.53248,115.487513 361.965542,115.236236 L362.06981,115.183567 L367.57223,112.79121 C368.078714,112.571 368.667816,112.80307 368.888026,113.309554 Z M379.892867,108.524841 C380.097348,108.995147 379.911852,109.53669 379.47879,109.787967 L379.374523,109.840637 L373.872102,112.232993 C373.365619,112.453204 372.776517,112.221133 372.556306,111.714649 C372.351825,111.244343 372.537321,110.7028 372.970383,110.451523 L373.07465,110.398853 L378.577071,108.006497 C379.083554,107.786286 379.672656,108.018357 379.892867,108.524841 Z M390.897707,103.740127 C391.102188,104.210434 390.916693,104.751977 390.483631,105.003254 L390.379363,105.055923 L384.876943,107.44828 C384.370459,107.66849 383.781357,107.43642 383.561147,106.929936 C383.356666,106.45963 383.542162,105.918086 383.975224,105.66681 L384.079491,105.61414 L389.581911,103.221783 C390.088395,103.001573 390.677497,103.233643 390.897707,103.740127 Z M401.902548,98.9554139 C402.107029,99.4257203 401.921533,99.9672638 401.488471,100.21854 L401.384204,100.27121 L395.881784,102.663567 C395.3753,102.883777 394.786198,102.651707 394.565988,102.145223 C394.361507,101.674916 394.547002,101.133373 394.980064,100.882096 L395.084332,100.829427 L400.586752,98.43707 C401.093236,98.2168596 401.682338,98.4489301 401.902548,98.9554139 Z M412.907389,94.1707006 C413.11187,94.641007 412.926374,95.1825505 412.493312,95.433827 L412.389045,95.4864967 L406.886624,97.8788534 C406.380141,98.0990637 405.791039,97.8669933 405.570828,97.3605095 C405.366347,96.8902031 405.551843,96.3486595 405.984905,96.097383 L406.089172,96.0447133 L411.591593,93.6523566 C412.098076,93.4321463 412.687178,93.6642168 412.907389,94.1707006 Z M420.976946,82.2954575 L421.093645,82.3006701 L434.789887,83.7061796 C435.526823,83.7818041 435.915799,84.595482 435.549156,85.2096003 L435.484926,85.3047713 L427.171487,96.2797075 C426.838009,96.7199468 426.210787,96.8064938 425.770547,96.4730155 C425.364172,96.1651893 425.259169,95.6070727 425.507709,95.1767699 L425.577239,95.0720758 L431.586,87.14 L428.896306,88.3094267 C428.389822,88.5296371 427.80072,88.2975666 427.58051,87.7910828 C427.376029,87.3207764 427.561524,86.7792329 427.994586,86.5279563 L428.098854,86.4752866 L430.787,85.306 L420.889477,84.2902217 C420.37932,84.2378693 419.998265,83.8106979 419.991572,83.3100606 L419.996785,83.1933619 C420.04511,82.722448 420.412808,82.3615383 420.862856,82.3035359 L420.976946,82.2954575 Z M423.912229,89.3859872 C424.11671,89.8562936 423.931215,90.3978371 423.498153,90.6491137 L423.393885,90.7017834 L417.891465,93.0941401 C417.384981,93.3143504 416.795879,93.0822799 416.575669,92.5757961 C416.371188,92.1054897 416.556684,91.5639462 416.989746,91.3126696 L417.094013,91.2599999 L422.596433,88.8676433 C423.102917,88.6474329 423.692019,88.8795034 423.912229,89.3859872 Z" id="直线" fill-opacity="0.25" fill="#000000" fill-rule="nonzero"></path>
            <g id="编组" transform="translate(70.000000, 59.000000)" fill="#FFFFFF" fill-rule="nonzero" stroke="#000000" stroke-width="2">
                <circle id="椭圆形" cx="19" cy="19" r="19"></circle>
            </g>
            <g id="编组" transform="translate(30.000000, 135.000000)" fill="#C3EEFF" fill-rule="nonzero" stroke="#000000" stroke-width="2">
                <circle id="椭圆形" cx="19" cy="19" r="19"></circle>
            </g>
            <g id="编组" transform="translate(68.000000, 211.000000)" fill="#FFFFFF" fill-rule="nonzero" stroke="#000000" stroke-width="2">
                <circle id="椭圆形" cx="19" cy="19" r="19"></circle>
            </g>
            <text id="g" fill="#000000" font-family="FiraCode-Light_Retina, Fira Code" font-size="20" font-weight="300">
                <tspan x="83" y="82">g</tspan>
            </text>
            <text id="f" fill="#000000" font-family="FiraCode-Light_Retina, Fira Code" font-size="20" font-weight="300">
                <tspan x="43" y="162">f</tspan>
            </text>
            <text id="(a)" fill="#000000" font-family="FiraCode-Light_Retina, Fira Code" font-size="20" font-weight="300">
                <tspan x="44" y="293">(a)</tspan>
            </text>
            <text id="L_rotate(f)" fill="#000000" font-family="FiraCode-Light_Retina, Fira Code" font-size="20" font-weight="300">
                <tspan x="97" y="324">L_rotate(f)</tspan>
            </text>
            <text id="Case" fill="#000000" font-family="FiraCode-Light_Retina, Fira Code" font-size="20" font-weight="300">
                <tspan x="0" y="20">Case</tspan>
            </text>
            <text id="3.LR" fill="#000000" font-family="FiraCode-Light_Retina, Fira Code" font-size="20" font-weight="300">
                <tspan x="54" y="20">3.LR</tspan>
            </text>
            <path d="M423.162499,279.28877 L423.26726,279.340452 L435.243333,286.132812 C435.883947,286.496143 435.916452,287.389159 435.344399,287.807297 L435.237174,287.875953 L423.213397,294.583508 C422.731086,294.852569 422.121978,294.679696 421.852916,294.197384 C421.603074,293.749523 421.734287,293.192333 422.140472,292.899594 L422.23904,292.836903 L430.929,287.988 L427.996504,287.978792 C427.444223,287.976841 426.998092,287.527546 427.000044,286.975265 C427.001995,286.422984 427.45129,285.976853 428.003571,285.978805 L430.936,285.989 L422.280584,281.080127 C421.8345,280.827126 421.657293,280.282814 421.852402,279.821712 L421.904084,279.716952 C422.157085,279.270868 422.701397,279.093661 423.162499,279.28877 Z M416.003646,285.936396 L422.003608,285.957604 C422.55589,285.959555 423.00202,286.40885 423.000075,286.961131 C422.998257,287.473964 422.610725,287.895268 422.113186,287.951276 L421.996541,287.957591 L415.996579,287.936396 C415.444298,287.934438 414.998167,287.485144 415.000113,286.932863 C415.00207,286.380581 415.451365,285.934451 416.003646,285.936396 Z M404.003721,285.893994 L410.003683,285.915201 C410.555965,285.917153 411.002095,286.366447 411.00015,286.918728 C410.998331,287.431561 410.6108,287.852866 410.11326,287.908873 L409.996616,287.915189 L403.996654,287.893994 C403.444372,287.892036 402.998242,287.442741 403.000188,286.89046 C403.002145,286.338179 403.45144,285.892048 404.003721,285.893994 Z M392.003796,285.851591 L398.003758,285.872799 C398.55604,285.87475 399.00217,286.324045 399.000225,286.876326 C398.998406,287.389158 398.610875,287.810463 398.113335,287.86647 L397.996691,287.872786 L391.996729,287.851591 C391.444447,287.849633 390.998317,287.400339 391.000262,286.848057 C391.00222,286.295776 391.451514,285.849646 392.003796,285.851591 Z M380.003871,285.809189 L386.003833,285.830396 C386.556115,285.832348 387.002245,286.281642 387.000299,286.833923 C386.998481,287.346756 386.61095,287.768061 386.11341,287.824068 L385.996766,287.830384 L379.996804,287.809189 C379.444522,287.807231 378.998392,287.357936 379.000337,286.805655 C379.002295,286.253374 379.451589,285.807243 380.003871,285.809189 Z M368.003946,285.766786 L374.003908,285.787993 C374.556189,285.789945 375.00232,286.239239 375.000374,286.791521 C374.998556,287.304353 374.611025,287.725658 374.113485,287.781665 L373.996841,287.787981 L367.996878,287.766786 C367.444597,287.764828 366.998467,287.315534 367.000412,286.763252 C367.00237,286.210971 367.451664,285.764841 368.003946,285.766786 Z M356.004021,285.724384 L362.003983,285.745591 C362.556264,285.747542 363.002395,286.196837 363.000449,286.749118 C362.998631,287.261951 362.6111,287.683255 362.11356,287.739263 L361.996916,287.745578 L355.996953,287.724384 C355.444672,287.722426 354.998542,287.273131 355.000487,286.72085 C355.002445,286.168568 355.451739,285.722438 356.004021,285.724384 Z M344.004095,285.681981 L350.004058,285.703188 C350.556339,285.70514 351.00247,286.154434 351.000524,286.706716 C350.998706,287.219548 350.611175,287.640853 350.113635,287.69686 L349.996991,287.703176 L343.997028,287.681981 C343.444747,287.680023 342.998617,287.230729 343.000562,286.678447 C343.00252,286.126166 343.451814,285.680036 344.004095,285.681981 Z M332.00417,285.639578 L338.004133,285.660786 C338.556414,285.662737 339.002545,286.112032 339.000599,286.664313 C338.998781,287.177146 338.61125,287.59845 338.11371,287.654458 L337.997066,287.660773 L331.997103,287.639578 C331.444822,287.63762 330.998692,287.188326 331.000637,286.636045 C331.002595,286.083763 331.451889,285.637633 332.00417,285.639578 Z M320.004245,285.597176 L326.004208,285.618383 C326.556489,285.620335 327.00262,286.069629 327.000674,286.62191 C326.998856,287.134743 326.611325,287.556048 326.113785,287.612055 L325.997141,287.618371 L319.997178,287.597176 C319.444897,287.595218 318.998766,287.145923 319.000712,286.593642 C319.002669,286.041361 319.451964,285.59523 320.004245,285.597176 Z M308.00432,285.554773 L314.004283,285.575981 C314.556564,285.577932 315.002694,286.027227 315.000749,286.579508 C314.998931,287.092341 314.611399,287.513645 314.11386,287.569653 L313.997216,287.575968 L307.997253,287.554773 C307.444972,287.552815 306.998841,287.103521 307.000787,286.55124 C307.002744,285.998958 307.452039,285.552828 308.00432,285.554773 Z M296.004395,285.512371 L302.004358,285.533578 C302.556639,285.53553 303.002769,285.984824 303.000824,286.537105 C302.999006,287.049938 302.611474,287.471243 302.113935,287.52725 L301.997291,287.533566 L295.997328,287.512371 C295.445047,287.510413 294.998916,287.061118 295.000862,286.508837 C295.002819,285.956556 295.452114,285.510425 296.004395,285.512371 Z" id="直线" fill="#000000" fill-rule="nonzero"></path>
            <text id="R_rotate(g)" fill="#000000" font-family="FiraCode-Light_Retina, Fira Code" font-size="20" font-weight="300">
                <tspan x="297" y="324">R_rotate(g)</tspan>
            </text>
            <text id="v" fill="#000000" font-family="FiraCode-Light_Retina, Fira Code" font-size="20" font-weight="300">
                <tspan x="81" y="237">v</tspan>
            </text>
            <g id="编组" transform="translate(442.000000, 59.000000)" fill="#FFFFFF" fill-rule="nonzero" stroke="#000000" stroke-width="2">
                <circle id="椭圆形" cx="19" cy="19" r="19"></circle>
            </g>
            <g id="编组" transform="translate(482.000000, 135.000000)" fill="#FFFFFF" fill-rule="nonzero" stroke="#000000" stroke-width="2">
                <circle id="椭圆形" cx="19" cy="19" r="19"></circle>
            </g>
            <text id="g" fill="#000000" font-family="FiraCode-Light_Medium, Fira Code" font-size="20" font-weight="400">
                <tspan x="455" y="82">g</tspan>
            </text>
            <text id="f" fill="#000000" font-family="FiraCode-Light_Medium, Fira Code" font-size="20" font-weight="400">
                <tspan x="495" y="162">f</tspan>
            </text>
            <line x1="461" y1="78" x2="501.5" y2="154.5" id="直线" stroke="#000000" stroke-width="2" stroke-linecap="square"></line>
            <line x1="461" y1="78" x2="421" y2="155" id="直线" stroke="#000000" stroke-width="2" stroke-linecap="square"></line>
            <g id="编组" transform="translate(442.000000, 59.000000)" fill="#FFFFFF" fill-rule="nonzero" stroke="#000000" stroke-width="2">
                <circle id="椭圆形" cx="19" cy="19" r="19"></circle>
            </g>
            <g id="编组" transform="translate(482.000000, 135.000000)" fill="#FFEEBF" fill-rule="nonzero" stroke="#000000" stroke-width="2">
                <circle id="椭圆形" cx="19" cy="19" r="19"></circle>
            </g>
            <g id="编组" transform="translate(402.000000, 136.000000)" fill="#C3EEFF" fill-rule="nonzero" stroke="#000000" stroke-width="2">
                <circle id="椭圆形" cx="19" cy="19" r="19"></circle>
            </g>
            <text id="v" fill="#000000" font-family="FiraCode-Light_Retina, Fira Code" font-size="20" font-weight="300">
                <tspan x="455" y="85">v</tspan>
            </text>
            <text id="g" fill="#000000" font-family="FiraCode-Light_Retina, Fira Code" font-size="20" font-weight="300">
                <tspan x="495" y="159">g</tspan>
            </text>
            <text id="(c)" fill="#000000" font-family="FiraCode-Light_Retina, Fira Code" font-size="20" font-weight="300">
                <tspan x="443" y="293">(c)</tspan>
            </text>
            <text id="f" fill="#000000" font-family="FiraCode-Light_Retina, Fira Code" font-size="20" font-weight="300">
                <tspan x="415" y="162">f</tspan>
            </text>
            <line x1="306.5" y1="81.5" x2="266.5" y2="154.5" id="直线" stroke="#000000" stroke-width="2" stroke-linecap="square"></line>
            <g id="编组" transform="translate(287.000000, 59.000000)" fill="#FFFFFF" fill-rule="nonzero" stroke="#000000" stroke-width="2">
                <circle id="椭圆形" cx="19" cy="19" r="19"></circle>
            </g>
            <g id="编组" transform="translate(247.000000, 135.000000)" fill="#FFFFFF" fill-rule="nonzero" stroke="#000000" stroke-width="2">
                <circle id="椭圆形" cx="19" cy="19" r="19"></circle>
            </g>
            <text id="g" fill="#000000" font-family="FiraCode-Light_Medium, Fira Code" font-size="20" font-weight="400">
                <tspan x="300" y="82">g</tspan>
            </text>
            <text id="f" fill="#000000" font-family="FiraCode-Light_Medium, Fira Code" font-size="20" font-weight="400">
                <tspan x="260" y="162">f</tspan>
            </text>
            <line x1="306.5" y1="81.5" x2="266.5" y2="154.5" id="直线" stroke="#000000" stroke-width="2" stroke-linecap="square"></line>
            <line x1="266" y1="157" x2="226" y2="230" id="直线" stroke="#000000" stroke-width="2" stroke-linecap="square"></line>
            <g id="编组" transform="translate(287.000000, 59.000000)" fill="#FFEEBF" fill-rule="nonzero" stroke="#000000" stroke-width="2">
                <circle id="椭圆形" cx="19" cy="19" r="19"></circle>
            </g>
            <g id="编组" transform="translate(247.000000, 135.000000)" fill="#FFFFFF" fill-rule="nonzero" stroke="#000000" stroke-width="2">
                <circle id="椭圆形" cx="19" cy="19" r="19"></circle>
            </g>
            <text id="g" fill="#000000" font-family="FiraCode-Light_Retina, Fira Code" font-size="20" font-weight="300">
                <tspan x="300" y="83">g</tspan>
            </text>
            <text id="v" fill="#000000" font-family="FiraCode-Light_Retina, Fira Code" font-size="20" font-weight="300">
                <tspan x="260" y="162">v</tspan>
            </text>
            <text id="(b)" fill="#000000" font-family="FiraCode-Light_Retina, Fira Code" font-size="20" font-weight="300">
                <tspan x="248" y="293">(b)</tspan>
            </text>
            <g id="编组" transform="translate(207.000000, 211.000000)" fill="#C3EEFF" fill-rule="nonzero" stroke="#000000" stroke-width="2">
                <circle id="椭圆形" cx="19" cy="19" r="19"></circle>
            </g>
            <text id="f" fill="#000000" font-family="FiraCode-Light_Retina, Fira Code" font-size="20" font-weight="300">
                <tspan x="220" y="237">f</tspan>
            </text>
        </g>
    </g>
</svg>