<?xml version="1.0" encoding="UTF-8"?>
<svg width="620px" height="417px" viewBox="0 0 620 417" version="1.1" xmlns="http://www.w3.org/2000/svg" xmlns:xlink="http://www.w3.org/1999/xlink">
    <!-- Generator: Sketch 63.1 (92452) - https://sketch.com -->
    <title>未命名 2</title>
    <desc>Created with Sketch.</desc>
    <g id="页面-1" stroke="none" stroke-width="1" fill="none" fill-rule="evenodd">
        <g id="编组-2" transform="translate(1.000000, 38.000000)">
            <g id="编组" transform="translate(80.000000, 78.000000)" fill="#FFFFFF" fill-rule="nonzero" stroke="#000000" stroke-width="2">
                <circle id="椭圆形" cx="19" cy="19" r="19"></circle>
            </g>
            <g id="编组" transform="translate(40.000000, 154.000000)" fill="#FFFFFF" fill-rule="nonzero" stroke="#000000" stroke-width="2">
                <circle id="椭圆形" cx="19" cy="19" r="19"></circle>
            </g>
            <g id="编组" transform="translate(0.000000, 230.000000)" fill="#FFFFFF" fill-rule="nonzero" stroke="#000000" stroke-width="2">
                <circle id="椭圆形" cx="19" cy="19" r="19"></circle>
            </g>
            <g id="g" transform="translate(93.000000, 81.000000)" fill="#000000" font-family="FiraCode-Light_Regular, Fira Code" font-size="20" font-weight="normal">
                <g id="编组">
                    <text id="g">
                        <tspan x="0" y="20">g</tspan>
                    </text>
                </g>
            </g>
            <g id="f" transform="translate(53.000000, 161.000000)" fill="#000000" font-family="FiraCode-Light_Regular, Fira Code" font-size="20" font-weight="normal">
                <g id="编组">
                    <text id="f">
                        <tspan x="0" y="20">f</tspan>
                    </text>
                </g>
            </g>
            <g stroke-linecap="round" transform="translate(72.000000, 108.000000)" stroke="#000000" stroke-width="2">
                <line x1="26.5" y1="0" x2="1" y2="50.5" id="直线"></line>
                <line x1="1" y1="50" x2="1.75" y2="42.25" id="直线-2"></line>
                <line x1="1.6875" y1="50.1875" x2="6.75" y2="45.25" id="直线-2"></line>
            </g>
            <g stroke-linecap="round" transform="translate(73.500000, 138.500000) rotate(180.000000) translate(-73.500000, -138.500000) translate(60.000000, 113.000000)" stroke="#000000" stroke-width="2">
                <line x1="26.5" y1="0" x2="1" y2="50.5" id="直线"></line>
                <line x1="1" y1="50" x2="1.75" y2="42.25" id="直线-2"></line>
                <line x1="1.6875" y1="50.1875" x2="6.75" y2="45.25" id="直线-2"></line>
            </g>
            <g opacity="0.3" stroke-linecap="round" transform="translate(32.000000, 184.000000)" stroke="#000000" stroke-width="2">
                <line x1="26.5" y1="0" x2="1" y2="50.5" id="直线"></line>
                <line x1="1" y1="50" x2="1.75" y2="42.25" id="直线-2"></line>
                <line x1="1.6875" y1="50.1875" x2="6.75" y2="45.25" id="直线-2"></line>
            </g>
            <g opacity="0.3" stroke-linecap="round" transform="translate(33.500000, 214.500000) rotate(180.000000) translate(-33.500000, -214.500000) translate(20.000000, 189.000000)" stroke="#000000" stroke-width="2">
                <line x1="26.5" y1="0" x2="1" y2="50.5" id="直线"></line>
                <line x1="1" y1="50" x2="1.75" y2="42.25" id="直线-2"></line>
                <line x1="1.6875" y1="50.1875" x2="6.75" y2="45.25" id="直线-2"></line>
            </g>
            <g stroke-linecap="round" transform="translate(109.500000, 60.500000) rotate(180.000000) translate(-109.500000, -60.500000) translate(96.000000, 35.000000)" stroke="#000000" stroke-width="2">
                <line x1="26.5" y1="0" x2="1" y2="50.5" id="直线"></line>
                <line x1="1" y1="50" x2="1.75" y2="42.25" id="直线-2"></line>
                <line x1="1.6875" y1="50.1875" x2="6.75" y2="45.25" id="直线-2"></line>
            </g>
            <g stroke-linecap="round" transform="translate(80.500000, 204.500000) scale(-1, 1) translate(-80.500000, -204.500000) translate(67.000000, 179.000000)" stroke="#000000" stroke-width="2">
                <line x1="26.5" y1="0" x2="1" y2="50.5" id="直线"></line>
                <line x1="1" y1="50" x2="1.75" y2="42.25" id="直线-2"></line>
                <line x1="1.6875" y1="50.1875" x2="6.75" y2="45.25" id="直线-2"></line>
            </g>
            <g stroke-linecap="round" transform="translate(77.500000, 217.500000) scale(-1, 1) rotate(-180.000000) translate(-77.500000, -217.500000) translate(64.000000, 192.000000)" stroke="#000000" stroke-width="2">
                <line x1="26.5" y1="0" x2="1" y2="50.5" id="直线"></line>
                <line x1="1" y1="50" x2="1.75" y2="42.25" id="直线-2"></line>
                <line x1="1.6875" y1="50.1875" x2="6.75" y2="45.25" id="直线-2"></line>
            </g>
            <g id="编组" transform="translate(80.000000, 78.000000)" fill="#C3EEFF" fill-rule="nonzero" stroke="#000000" stroke-width="2">
                <circle id="椭圆形" cx="19" cy="19" r="19"></circle>
            </g>
            <g id="编组" transform="translate(40.000000, 154.000000)" fill="#E3FFC6" fill-rule="nonzero" stroke="#000000" stroke-width="2">
                <circle id="椭圆形" cx="19" cy="19" r="19"></circle>
            </g>
            <g id="编组" transform="translate(80.000000, 230.000000)" fill="#FFFFFF" fill-rule="nonzero" stroke="#000000" stroke-width="2">
                <circle id="椭圆形" cx="19" cy="19" r="19"></circle>
            </g>
            <g id="编组" transform="translate(0.000000, 230.000000)" fill="#FFFFFF" fill-rule="nonzero" stroke="#000000" stroke-width="2">
                <circle id="椭圆形" cx="19" cy="19" r="19"></circle>
            </g>
            <g id="g" transform="translate(93.000000, 81.000000)" fill="#000000" font-family="FiraCode-Light_Regular, Fira Code" font-size="20" font-weight="normal">
                <g id="编组">
                    <text id="g">
                        <tspan x="0" y="20">g</tspan>
                    </text>
                </g>
            </g>
            <g stroke-linecap="round" transform="translate(109.000000, 29.000000)" stroke="#000000" stroke-width="2">
                <line x1="26.5" y1="0" x2="1" y2="50.5" id="直线"></line>
                <line x1="1" y1="50" x2="1.75" y2="42.25" id="直线-2"></line>
                <line x1="1.6875" y1="50.1875" x2="6.75" y2="45.25" id="直线-2"></line>
            </g>
            <g id="编组" transform="translate(116.000000, 0.000000)" fill="#FFEEBF" fill-rule="nonzero" stroke="#000000" stroke-width="2">
                <circle id="椭圆形" cx="19" cy="19" r="19"></circle>
            </g>
            <g id="g" transform="translate(129.000000, 6.000000)" fill="#000000" font-family="FiraCode-Light_Regular, Fira Code" font-size="20" font-weight="normal">
                <g id="R">
                    <text>
                        <tspan x="0" y="20">R</tspan>
                    </text>
                </g>
            </g>
            <g id="f" transform="translate(53.000000, 161.000000)" fill="#000000" font-family="FiraCode-Light_Regular, Fira Code" font-size="20" font-weight="normal">
                <g id="编组">
                    <text id="f">
                        <tspan x="0" y="20">f</tspan>
                    </text>
                </g>
            </g>
            <g id="fr" transform="translate(88.000000, 236.000000)" fill="#000000" font-family="FiraCode-Light_Regular, Fira Code" font-size="20" font-weight="normal">
                <g id="编组">
                    <text id="fr">
                        <tspan x="0" y="20">fr</tspan>
                    </text>
                </g>
            </g>
            <g id="v" transform="translate(13.000000, 236.000000)" fill="#000000" font-family="FiraCode-Light_Regular, Fira Code" font-size="20" font-weight="normal">
                <g id="编组">
                    <text id="v">
                        <tspan x="0" y="20">v</tspan>
                    </text>
                </g>
            </g>
        </g>
        <g id="编组-4" transform="translate(339.000000, 39.000000)">
            <g id="编组-2" stroke-linecap="round" transform="translate(76.500000, 128.500000) scale(-1, 1) translate(-76.500000, -128.500000) translate(63.000000, 103.000000)" stroke="#000000" stroke-width="2">
                <line x1="26.5" y1="0" x2="1" y2="50.5" id="直线"></line>
                <line x1="1" y1="50" x2="1.75" y2="42.25" id="直线-2"></line>
                <line x1="1.6875" y1="50.1875" x2="6.75" y2="45.25" id="直线-2"></line>
            </g>
            <g id="编组-2" opacity="0.3" stroke-linecap="round" transform="translate(33.500000, 137.500000) rotate(180.000000) translate(-33.500000, -137.500000) translate(20.000000, 112.000000)" stroke="#000000" stroke-width="2">
                <line x1="26.5" y1="0" x2="1" y2="50.5" id="直线"></line>
                <line x1="1" y1="50" x2="1.75" y2="42.25" id="直线-2"></line>
                <line x1="1.6875" y1="50.1875" x2="6.75" y2="45.25" id="直线-2"></line>
            </g>
            <g id="编组-2" opacity="0.3" stroke-linecap="round" transform="translate(32.000000, 107.000000)" stroke="#000000" stroke-width="2">
                <line x1="26.5" y1="0" x2="1" y2="50.5" id="直线"></line>
                <line x1="1" y1="50" x2="1.75" y2="42.25" id="直线-2"></line>
                <line x1="1.6875" y1="50.1875" x2="6.75" y2="45.25" id="直线-2"></line>
            </g>
            <g id="编组-2" stroke-linecap="round" transform="translate(58.500000, 171.000000) scale(-1, 1) rotate(-26.000000) translate(-58.500000, -171.000000) translate(33.000000, 120.000000)" stroke="#000000" stroke-width="2">
                <line x1="50.0929649" y1="0.332717514" x2="1" y2="101.5" id="直线"></line>
                <line x1="1" y1="101" x2="1.75" y2="93.25" id="直线-2"></line>
                <line x1="1.6875" y1="101.1875" x2="6.75" y2="96.25" id="直线-2"></line>
            </g>
            <g id="编组-2" stroke-linecap="round" transform="translate(101.276177, 95.016961) scale(-1, 1) rotate(-26.000000) translate(-101.276177, -95.016961) translate(75.776177, 44.016961)" stroke="#000000" stroke-width="2">
                <line x1="50.0929649" y1="0.332717514" x2="1" y2="101.5" id="直线"></line>
                <line x1="1" y1="101" x2="1.75" y2="93.25" id="直线-2"></line>
                <line x1="1.6875" y1="101.1875" x2="6.75" y2="96.25" id="直线-2"></line>
            </g>
            <g id="编组-2" stroke-linecap="round" transform="translate(94.276177, 96.016961) scale(-1, -1) rotate(-26.000000) translate(-94.276177, -96.016961) translate(68.776177, 45.016961)" stroke="#000000" stroke-width="2">
                <line x1="50.0929649" y1="0.332717514" x2="1" y2="101.5" id="直线"></line>
                <line x1="1" y1="101" x2="1.75" y2="93.25" id="直线-2"></line>
                <line x1="1.6875" y1="101.1875" x2="6.75" y2="96.25" id="直线-2"></line>
            </g>
            <g id="编组" transform="translate(40.000000, 77.000000)" fill="#FFFFFF" fill-rule="nonzero" stroke="#000000" stroke-width="2">
                <circle id="椭圆形" cx="19" cy="19" r="19"></circle>
            </g>
            <g id="编组" transform="translate(0.000000, 153.000000)" fill="#FFFFFF" fill-rule="nonzero" stroke="#000000" stroke-width="2">
                <circle id="椭圆形" cx="19" cy="19" r="19"></circle>
            </g>
            <g id="g" transform="translate(53.000000, 80.000000)" fill="#000000" font-family="FiraCode-Light_Regular, Fira Code" font-size="20" font-weight="normal">
                <g id="编组">
                    <text id="g">
                        <tspan x="0" y="20">g</tspan>
                    </text>
                </g>
            </g>
            <g id="f" transform="translate(13.000000, 160.000000)" fill="#000000" font-family="FiraCode-Light_Regular, Fira Code" font-size="20" font-weight="normal">
                <g id="编组">
                    <text id="f">
                        <tspan x="0" y="20">f</tspan>
                    </text>
                </g>
            </g>
            <g id="编组-2" stroke-linecap="round" transform="translate(73.500000, 213.500000) rotate(180.000000) translate(-73.500000, -213.500000) translate(60.000000, 188.000000)" stroke="#000000" stroke-width="2">
                <line x1="26.5" y1="0" x2="1" y2="50.5" id="直线"></line>
                <line x1="1" y1="50" x2="1.75" y2="42.25" id="直线-2"></line>
                <line x1="1.6875" y1="50.1875" x2="6.75" y2="45.25" id="直线-2"></line>
            </g>
            <g id="编组-2" stroke-linecap="round" transform="translate(72.000000, 183.000000)" stroke="#000000" stroke-width="2">
                <line x1="26.5" y1="0" x2="1" y2="50.5" id="直线"></line>
                <line x1="1" y1="50" x2="1.75" y2="42.25" id="直线-2"></line>
                <line x1="1.6875" y1="50.1875" x2="6.75" y2="45.25" id="直线-2"></line>
            </g>
            <g id="编组" transform="translate(40.000000, 77.000000)" fill="#E3FFC6" fill-rule="nonzero" stroke="#000000" stroke-width="2">
                <circle id="椭圆形" cx="19" cy="19" r="19"></circle>
            </g>
            <g id="编组" transform="translate(0.000000, 153.000000)" fill="#FFFFFF" fill-rule="nonzero" stroke="#000000" stroke-width="2">
                <circle id="椭圆形" cx="19" cy="19" r="19"></circle>
            </g>
            <g id="编组" transform="translate(40.000000, 229.000000)" fill="#FFFFFF" fill-rule="nonzero" stroke="#000000" stroke-width="2">
                <circle id="椭圆形" cx="19" cy="19" r="19"></circle>
            </g>
            <g id="f" transform="translate(53.000000, 83.000000)" fill="#000000" font-family="FiraCode-Light_Regular, Fira Code" font-size="20" font-weight="normal">
                <g id="编组">
                    <text id="f">
                        <tspan x="0" y="20">f</tspan>
                    </text>
                </g>
            </g>
            <g id="编组" transform="translate(80.000000, 153.000000)" fill="#FFFFFF" fill-rule="nonzero" stroke="#000000" stroke-width="2">
                <circle id="椭圆形" cx="19" cy="19" r="19"></circle>
            </g>
            <g id="g" transform="translate(93.000000, 156.000000)" fill="#000000" font-family="FiraCode-Light_Regular, Fira Code" font-size="20" font-weight="normal">
                <g id="编组">
                    <text id="g">
                        <tspan x="0" y="20">g</tspan>
                    </text>
                </g>
            </g>
            <g id="编组" transform="translate(80.000000, 153.000000)" fill="#C3EEFF" fill-rule="nonzero" stroke="#000000" stroke-width="2">
                <circle id="椭圆形" cx="19" cy="19" r="19"></circle>
            </g>
            <g id="g" transform="translate(93.000000, 156.000000)" fill="#000000" font-family="FiraCode-Light_Regular, Fira Code" font-size="20" font-weight="normal">
                <g id="编组">
                    <text id="g">
                        <tspan x="0" y="20">g</tspan>
                    </text>
                </g>
            </g>
            <g id="v" transform="translate(13.000000, 159.000000)" fill="#000000" font-family="FiraCode-Light_Regular, Fira Code" font-size="20" font-weight="normal">
                <g id="编组">
                    <text id="v">
                        <tspan x="0" y="20">v</tspan>
                    </text>
                </g>
            </g>
            <g id="fr" transform="translate(48.000000, 235.000000)" fill="#000000" font-family="FiraCode-Light_Regular, Fira Code" font-size="20" font-weight="normal">
                <g id="编组">
                    <text id="fr">
                        <tspan x="0" y="20">fr</tspan>
                    </text>
                </g>
            </g>
            <g id="编组" transform="translate(77.000000, 0.000000)" fill="#FFEEBF" fill-rule="nonzero" stroke="#000000" stroke-width="2">
                <circle id="椭圆形" cx="19" cy="19" r="19"></circle>
            </g>
            <g id="g" transform="translate(90.000000, 6.000000)" fill="#000000" font-family="FiraCode-Light_Regular, Fira Code" font-size="20" font-weight="normal">
                <g id="R">
                    <text>
                        <tspan x="0" y="20">R</tspan>
                    </text>
                </g>
            </g>
        </g>
        <g id="编组-3" transform="translate(170.000000, 38.000000)">
            <g id="编组" transform="translate(80.000000, 78.000000)" fill="#FFFFFF" fill-rule="nonzero" stroke="#000000" stroke-width="2">
                <circle id="椭圆形" cx="19" cy="19" r="19"></circle>
            </g>
            <g id="编组" transform="translate(40.000000, 154.000000)" fill="#FFFFFF" fill-rule="nonzero" stroke="#000000" stroke-width="2">
                <circle id="椭圆形" cx="19" cy="19" r="19"></circle>
            </g>
            <g id="编组" transform="translate(0.000000, 230.000000)" fill="#FFFFFF" fill-rule="nonzero" stroke="#000000" stroke-width="2">
                <circle id="椭圆形" cx="19" cy="19" r="19"></circle>
            </g>
            <g id="g" transform="translate(93.000000, 81.000000)" fill="#000000" font-family="FiraCode-Light_Regular, Fira Code" font-size="20" font-weight="normal">
                <g id="编组">
                    <text id="g">
                        <tspan x="0" y="20">g</tspan>
                    </text>
                </g>
            </g>
            <g id="f" transform="translate(53.000000, 161.000000)" fill="#000000" font-family="FiraCode-Light_Regular, Fira Code" font-size="20" font-weight="normal">
                <g id="编组">
                    <text id="f">
                        <tspan x="0" y="20">f</tspan>
                    </text>
                </g>
            </g>
            <g id="编组-2" stroke-linecap="round" transform="translate(75.500000, 140.500000) rotate(180.000000) translate(-75.500000, -140.500000) translate(62.000000, 115.000000)" stroke="#000000" stroke-width="2">
                <line x1="26.5" y1="0" x2="1" y2="50.5" id="直线"></line>
                <line x1="1" y1="50" x2="1.75" y2="42.25" id="直线-2"></line>
                <line x1="1.6875" y1="50.1875" x2="6.75" y2="45.25" id="直线-2"></line>
            </g>
            <g id="编组-2" opacity="0.3" stroke-linecap="round" transform="translate(32.000000, 184.000000)" stroke="#000000" stroke-width="2">
                <line x1="26.5" y1="0" x2="1" y2="50.5" id="直线"></line>
                <line x1="1" y1="50" x2="1.75" y2="42.25" id="直线-2"></line>
                <line x1="1.6875" y1="50.1875" x2="6.75" y2="45.25" id="直线-2"></line>
            </g>
            <g id="编组-2" opacity="0.3" stroke-linecap="round" transform="translate(33.500000, 214.500000) rotate(180.000000) translate(-33.500000, -214.500000) translate(20.000000, 189.000000)" stroke="#000000" stroke-width="2">
                <line x1="26.5" y1="0" x2="1" y2="50.5" id="直线"></line>
                <line x1="1" y1="50" x2="1.75" y2="42.25" id="直线-2"></line>
                <line x1="1.6875" y1="50.1875" x2="6.75" y2="45.25" id="直线-2"></line>
            </g>
            <g id="编组-2" stroke-linecap="round" transform="translate(109.500000, 60.500000) rotate(180.000000) translate(-109.500000, -60.500000) translate(96.000000, 35.000000)" stroke="#000000" stroke-width="2">
                <line x1="26.5" y1="0" x2="1" y2="50.5" id="直线"></line>
                <line x1="1" y1="50" x2="1.75" y2="42.25" id="直线-2"></line>
                <line x1="1.6875" y1="50.1875" x2="6.75" y2="45.25" id="直线-2"></line>
            </g>
            <g id="编组-2" stroke-linecap="round" transform="translate(80.500000, 205.500000) scale(-1, 1) translate(-80.500000, -205.500000) translate(67.000000, 180.000000)" stroke="#000000" stroke-width="2">
                <line x1="26.5" y1="0" x2="1" y2="50.5" id="直线"></line>
                <line x1="1" y1="50" x2="1.75" y2="42.25" id="直线-2"></line>
                <line x1="1.6875" y1="50.1875" x2="6.75" y2="45.25" id="直线-2"></line>
            </g>
            <g id="编组-2" stroke-linecap="round" transform="translate(105.500000, 172.000000) scale(-1, 1) rotate(-26.000000) translate(-105.500000, -172.000000) translate(80.000000, 121.000000)" stroke="#000000" stroke-width="2">
                <line x1="50.0929649" y1="0.332717514" x2="1" y2="101.5" id="直线"></line>
                <line x1="1" y1="101" x2="1.75" y2="93.25" id="直线-2"></line>
                <line x1="1.6875" y1="101.1875" x2="6.75" y2="96.25" id="直线-2"></line>
            </g>
            <g id="编组-2" stroke-linecap="round" transform="translate(98.500000, 174.000000) scale(-1, -1) rotate(-26.000000) translate(-98.500000, -174.000000) translate(73.000000, 123.000000)" stroke="#000000" stroke-width="2">
                <line x1="50.0929649" y1="0.332717514" x2="1" y2="101.5" id="直线"></line>
                <line x1="1" y1="101" x2="1.75" y2="93.25" id="直线-2"></line>
                <line x1="1.6875" y1="101.1875" x2="6.75" y2="96.25" id="直线-2"></line>
            </g>
            <g id="编组" transform="translate(80.000000, 78.000000)" fill="#C3EEFF" fill-rule="nonzero" stroke="#000000" stroke-width="2">
                <circle id="椭圆形" cx="19" cy="19" r="19"></circle>
            </g>
            <g id="编组" transform="translate(40.000000, 154.000000)" fill="#E3FFC6" fill-rule="nonzero" stroke="#000000" stroke-width="2">
                <circle id="椭圆形" cx="19" cy="19" r="19"></circle>
            </g>
            <g id="编组" transform="translate(83.000000, 230.000000)" fill="#FFFFFF" fill-rule="nonzero" stroke="#000000" stroke-width="2">
                <circle id="椭圆形" cx="19" cy="19" r="19"></circle>
            </g>
            <g id="编组" transform="translate(0.000000, 230.000000)" fill="#FFFFFF" fill-rule="nonzero" stroke="#000000" stroke-width="2">
                <circle id="椭圆形" cx="19" cy="19" r="19"></circle>
            </g>
            <g id="g" transform="translate(93.000000, 81.000000)" fill="#000000" font-family="FiraCode-Light_Regular, Fira Code" font-size="20" font-weight="normal">
                <g id="编组">
                    <text id="g">
                        <tspan x="0" y="20">g</tspan>
                    </text>
                </g>
            </g>
            <g id="编组-2" stroke-linecap="round" transform="translate(109.000000, 29.000000)" stroke="#000000" stroke-width="2">
                <line x1="26.5" y1="0" x2="1" y2="50.5" id="直线"></line>
                <line x1="1" y1="50" x2="1.75" y2="42.25" id="直线-2"></line>
                <line x1="1.6875" y1="50.1875" x2="6.75" y2="45.25" id="直线-2"></line>
            </g>
            <g id="编组" transform="translate(116.000000, 0.000000)" fill="#FFEEBF" fill-rule="nonzero" stroke="#000000" stroke-width="2">
                <circle id="椭圆形" cx="19" cy="19" r="19"></circle>
            </g>
            <g id="g" transform="translate(129.000000, 6.000000)" fill="#000000" font-family="FiraCode-Light_Regular, Fira Code" font-size="20" font-weight="normal">
                <g id="R">
                    <text>
                        <tspan x="0" y="20">R</tspan>
                    </text>
                </g>
            </g>
            <g id="f" transform="translate(53.000000, 161.000000)" fill="#000000" font-family="FiraCode-Light_Regular, Fira Code" font-size="20" font-weight="normal">
                <g id="编组">
                    <text id="f">
                        <tspan x="0" y="20">f</tspan>
                    </text>
                </g>
            </g>
            <g id="fr" transform="translate(91.000000, 236.000000)" fill="#000000" font-family="FiraCode-Light_Regular, Fira Code" font-size="20" font-weight="normal">
                <g id="编组">
                    <text id="fr">
                        <tspan x="0" y="20">fr</tspan>
                    </text>
                </g>
            </g>
            <g id="v" transform="translate(13.000000, 236.000000)" fill="#000000" font-family="FiraCode-Light_Regular, Fira Code" font-size="20" font-weight="normal">
                <g id="编组">
                    <text id="v">
                        <tspan x="0" y="20">v</tspan>
                    </text>
                </g>
            </g>
        </g>
        <g id="编组-6" transform="translate(501.000000, 39.000000)">
            <g id="编组-2" stroke-linecap="round" transform="translate(74.500000, 129.500000) scale(-1, 1) translate(-74.500000, -129.500000) translate(61.000000, 104.000000)" stroke="#000000" stroke-width="2">
                <line x1="26.5" y1="0" x2="1" y2="50.5" id="直线"></line>
                <line x1="1" y1="50" x2="1.75" y2="42.25" id="直线-2"></line>
                <line x1="1.6875" y1="50.1875" x2="6.75" y2="45.25" id="直线-2"></line>
            </g>
            <g id="编组-2" stroke-linecap="round" transform="translate(86.500000, 133.500000) scale(-1, 1) rotate(180.000000) translate(-86.500000, -133.500000) translate(73.000000, 108.000000)" stroke="#000000" stroke-width="2">
                <line x1="26.5" y1="0" x2="1" y2="50.5" id="直线"></line>
                <line x1="1" y1="50" x2="1.75" y2="42.25" id="直线-2"></line>
                <line x1="1.6875" y1="50.1875" x2="6.75" y2="45.25" id="直线-2"></line>
            </g>
            <g id="编组-2" opacity="0.3" stroke-linecap="round" transform="translate(33.500000, 137.500000) rotate(180.000000) translate(-33.500000, -137.500000) translate(20.000000, 112.000000)" stroke="#000000" stroke-width="2">
                <line x1="26.5" y1="0" x2="1" y2="50.5" id="直线"></line>
                <line x1="1" y1="50" x2="1.75" y2="42.25" id="直线-2"></line>
                <line x1="1.6875" y1="50.1875" x2="6.75" y2="45.25" id="直线-2"></line>
            </g>
            <g id="编组-2" opacity="0.3" stroke-linecap="round" transform="translate(32.000000, 107.000000)" stroke="#000000" stroke-width="2">
                <line x1="26.5" y1="0" x2="1" y2="50.5" id="直线"></line>
                <line x1="1" y1="50" x2="1.75" y2="42.25" id="直线-2"></line>
                <line x1="1.6875" y1="50.1875" x2="6.75" y2="45.25" id="直线-2"></line>
            </g>
            <g id="编组" transform="translate(40.000000, 77.000000)" fill="#FFFFFF" fill-rule="nonzero" stroke="#000000" stroke-width="2">
                <circle id="椭圆形" cx="19" cy="19" r="19"></circle>
            </g>
            <g id="编组" transform="translate(0.000000, 153.000000)" fill="#FFFFFF" fill-rule="nonzero" stroke="#000000" stroke-width="2">
                <circle id="椭圆形" cx="19" cy="19" r="19"></circle>
            </g>
            <g id="g" transform="translate(53.000000, 80.000000)" fill="#000000" font-family="FiraCode-Light_Regular, Fira Code" font-size="20" font-weight="normal">
                <g id="编组">
                    <text id="g">
                        <tspan x="0" y="20">g</tspan>
                    </text>
                </g>
            </g>
            <g id="f" transform="translate(13.000000, 160.000000)" fill="#000000" font-family="FiraCode-Light_Regular, Fira Code" font-size="20" font-weight="normal">
                <g id="编组">
                    <text id="f">
                        <tspan x="0" y="20">f</tspan>
                    </text>
                </g>
            </g>
            <g id="编组-2" stroke-linecap="round" transform="translate(73.500000, 213.500000) rotate(180.000000) translate(-73.500000, -213.500000) translate(60.000000, 188.000000)" stroke="#000000" stroke-width="2">
                <line x1="26.5" y1="0" x2="1" y2="50.5" id="直线"></line>
                <line x1="1" y1="50" x2="1.75" y2="42.25" id="直线-2"></line>
                <line x1="1.6875" y1="50.1875" x2="6.75" y2="45.25" id="直线-2"></line>
            </g>
            <g id="编组-2" stroke-linecap="round" transform="translate(70.500000, 60.500000) rotate(180.000000) translate(-70.500000, -60.500000) translate(57.000000, 35.000000)" stroke="#000000" stroke-width="2">
                <line x1="26.5" y1="0" x2="1" y2="50.5" id="直线"></line>
                <line x1="1" y1="50" x2="1.75" y2="42.25" id="直线-2"></line>
                <line x1="1.6875" y1="50.1875" x2="6.75" y2="45.25" id="直线-2"></line>
            </g>
            <g id="编组-2" stroke-linecap="round" transform="translate(72.000000, 183.000000)" stroke="#000000" stroke-width="2">
                <line x1="26.5" y1="0" x2="1" y2="50.5" id="直线"></line>
                <line x1="1" y1="50" x2="1.75" y2="42.25" id="直线-2"></line>
                <line x1="1.6875" y1="50.1875" x2="6.75" y2="45.25" id="直线-2"></line>
            </g>
            <g id="编组-2" stroke-linecap="round" transform="translate(69.000000, 28.000000)" stroke="#000000" stroke-width="2">
                <line x1="26.5" y1="0" x2="1" y2="50.5" id="直线"></line>
                <line x1="1" y1="50" x2="1.75" y2="42.25" id="直线-2"></line>
                <line x1="1.6875" y1="50.1875" x2="6.75" y2="45.25" id="直线-2"></line>
            </g>
            <g id="编组" transform="translate(40.000000, 77.000000)" fill="#E3FFC6" fill-rule="nonzero" stroke="#000000" stroke-width="2">
                <circle id="椭圆形" cx="19" cy="19" r="19"></circle>
            </g>
            <g id="编组" transform="translate(0.000000, 153.000000)" fill="#FFFFFF" fill-rule="nonzero" stroke="#000000" stroke-width="2">
                <circle id="椭圆形" cx="19" cy="19" r="19"></circle>
            </g>
            <g id="编组" transform="translate(40.000000, 229.000000)" fill="#FFFFFF" fill-rule="nonzero" stroke="#000000" stroke-width="2">
                <circle id="椭圆形" cx="19" cy="19" r="19"></circle>
            </g>
            <g id="f" transform="translate(53.000000, 83.000000)" fill="#000000" font-family="FiraCode-Light_Regular, Fira Code" font-size="20" font-weight="normal">
                <g id="编组">
                    <text id="f">
                        <tspan x="0" y="20">f</tspan>
                    </text>
                </g>
            </g>
            <g id="编组" transform="translate(80.000000, 153.000000)" fill="#FFFFFF" fill-rule="nonzero" stroke="#000000" stroke-width="2">
                <circle id="椭圆形" cx="19" cy="19" r="19"></circle>
            </g>
            <g id="g" transform="translate(93.000000, 156.000000)" fill="#000000" font-family="FiraCode-Light_Regular, Fira Code" font-size="20" font-weight="normal">
                <g id="编组">
                    <text id="g">
                        <tspan x="0" y="20">g</tspan>
                    </text>
                </g>
            </g>
            <g id="编组" transform="translate(80.000000, 153.000000)" fill="#C3EEFF" fill-rule="nonzero" stroke="#000000" stroke-width="2">
                <circle id="椭圆形" cx="19" cy="19" r="19"></circle>
            </g>
            <g id="g" transform="translate(93.000000, 156.000000)" fill="#000000" font-family="FiraCode-Light_Regular, Fira Code" font-size="20" font-weight="normal">
                <g id="编组">
                    <text id="g">
                        <tspan x="0" y="20">g</tspan>
                    </text>
                </g>
            </g>
            <g id="v" transform="translate(13.000000, 159.000000)" fill="#000000" font-family="FiraCode-Light_Regular, Fira Code" font-size="20" font-weight="normal">
                <g id="编组">
                    <text id="v">
                        <tspan x="0" y="20">v</tspan>
                    </text>
                </g>
            </g>
            <g id="fr" transform="translate(48.000000, 235.000000)" fill="#000000" font-family="FiraCode-Light_Regular, Fira Code" font-size="20" font-weight="normal">
                <g id="编组">
                    <text id="fr">
                        <tspan x="0" y="20">fr</tspan>
                    </text>
                </g>
            </g>
            <g id="编组" transform="translate(77.000000, 0.000000)" fill="#FFEEBF" fill-rule="nonzero" stroke="#000000" stroke-width="2">
                <circle id="椭圆形" cx="19" cy="19" r="19"></circle>
            </g>
            <g id="g" transform="translate(90.000000, 6.000000)" fill="#000000" font-family="FiraCode-Light_Regular, Fira Code" font-size="20" font-weight="normal">
                <g id="R">
                    <text>
                        <tspan x="0" y="20">R</tspan>
                    </text>
                </g>
            </g>
        </g>
        <text id="Origin" fill="#000000" font-family="FiraCode-Light_Retina, Fira Code" font-size="20" font-weight="300">
            <tspan x="42" y="347">Origin</tspan>
        </text>
        <text id="Equal" fill="#000000" font-family="FiraCode-Light_Retina, Fira Code" font-size="20" font-weight="300">
            <tspan x="301" y="411">Equal</tspan>
        </text>
        <text id="(A)" fill="#000000" font-family="FiraCode-Light_Retina, Fira Code" font-size="20" font-weight="300">
            <tspan x="60" y="385">(A)</tspan>
        </text>
        <text id="(B)" fill="#000000" font-family="FiraCode-Light_Retina, Fira Code" font-size="20" font-weight="300">
            <tspan x="229" y="385">(B)</tspan>
        </text>
        <text id="(B)" fill="#000000" font-family="FiraCode-Light_Retina, Fira Code" font-size="20" font-weight="300">
            <tspan x="395" y="385">(B)</tspan>
        </text>
        <text id="(C)" fill="#000000" font-family="FiraCode-Light_Retina, Fira Code" font-size="20" font-weight="300">
            <tspan x="542" y="385">(C)</tspan>
        </text>
        <text id="Target" fill="#000000" font-family="FiraCode-Light_Retina, Fira Code" font-size="20" font-weight="300">
            <tspan x="524" y="347">Target</tspan>
        </text>
        <text id="Pointers" fill="#000000" font-family="FiraCode-Light_Retina, Fira Code" font-size="20" font-weight="300">
            <tspan x="1" y="20">Pointers</tspan>
        </text>
        <path id="直线-2" d="M208.635319,370.827113 L208.740261,370.878424 L220.740261,377.628424 C221.382154,377.989489 221.417815,378.882385 220.847243,379.302542 L220.740261,379.371576 L208.740261,386.121576 C208.258903,386.392339 207.649188,386.221619 207.378424,385.740261 C207.127001,385.293286 207.256245,384.735636 207.661393,384.441463 L207.759739,384.378424 L216.432,379.5 L214.5,379.5 C213.947715,379.5 213.5,379.052285 213.5,378.5 C213.5,377.987164 213.88604,377.564493 214.383379,377.506728 L214.5,377.5 L216.432,377.5 L207.759739,372.621576 C207.312764,372.370152 207.133634,371.826469 207.327113,371.364681 L207.378424,371.259739 C207.629848,370.812764 208.173531,370.633634 208.635319,370.827113 Z M112.5,377.5 C113.052285,377.5 113.5,377.947715 113.5,378.5 C113.5,379.012836 113.11396,379.435507 112.616621,379.493272 L112.5,379.5 L106.5,379.5 C105.947715,379.5 105.5,379.052285 105.5,378.5 C105.5,377.987164 105.88604,377.564493 106.383379,377.506728 L106.5,377.5 L112.5,377.5 Z M124.5,377.5 C125.052285,377.5 125.5,377.947715 125.5,378.5 C125.5,379.012836 125.11396,379.435507 124.616621,379.493272 L124.5,379.5 L118.5,379.5 C117.947715,379.5 117.5,379.052285 117.5,378.5 C117.5,377.987164 117.88604,377.564493 118.383379,377.506728 L118.5,377.5 L124.5,377.5 Z M136.5,377.5 C137.052285,377.5 137.5,377.947715 137.5,378.5 C137.5,379.012836 137.11396,379.435507 136.616621,379.493272 L136.5,379.5 L130.5,379.5 C129.947715,379.5 129.5,379.052285 129.5,378.5 C129.5,377.987164 129.88604,377.564493 130.383379,377.506728 L130.5,377.5 L136.5,377.5 Z M148.5,377.5 C149.052285,377.5 149.5,377.947715 149.5,378.5 C149.5,379.012836 149.11396,379.435507 148.616621,379.493272 L148.5,379.5 L142.5,379.5 C141.947715,379.5 141.5,379.052285 141.5,378.5 C141.5,377.987164 141.88604,377.564493 142.383379,377.506728 L142.5,377.5 L148.5,377.5 Z M160.5,377.5 C161.052285,377.5 161.5,377.947715 161.5,378.5 C161.5,379.012836 161.11396,379.435507 160.616621,379.493272 L160.5,379.5 L154.5,379.5 C153.947715,379.5 153.5,379.052285 153.5,378.5 C153.5,377.987164 153.88604,377.564493 154.383379,377.506728 L154.5,377.5 L160.5,377.5 Z M172.5,377.5 C173.052285,377.5 173.5,377.947715 173.5,378.5 C173.5,379.012836 173.11396,379.435507 172.616621,379.493272 L172.5,379.5 L166.5,379.5 C165.947715,379.5 165.5,379.052285 165.5,378.5 C165.5,377.987164 165.88604,377.564493 166.383379,377.506728 L166.5,377.5 L172.5,377.5 Z M184.5,377.5 C185.052285,377.5 185.5,377.947715 185.5,378.5 C185.5,379.012836 185.11396,379.435507 184.616621,379.493272 L184.5,379.5 L178.5,379.5 C177.947715,379.5 177.5,379.052285 177.5,378.5 C177.5,377.987164 177.88604,377.564493 178.383379,377.506728 L178.5,377.5 L184.5,377.5 Z M196.5,377.5 C197.052285,377.5 197.5,377.947715 197.5,378.5 C197.5,379.012836 197.11396,379.435507 196.616621,379.493272 L196.5,379.5 L190.5,379.5 C189.947715,379.5 189.5,379.052285 189.5,378.5 C189.5,377.987164 189.88604,377.564493 190.383379,377.506728 L190.5,377.5 L196.5,377.5 Z M208.5,377.5 C209.052285,377.5 209.5,377.947715 209.5,378.5 C209.5,379.012836 209.11396,379.435507 208.616621,379.493272 L208.5,379.5 L202.5,379.5 C201.947715,379.5 201.5,379.052285 201.5,378.5 C201.5,377.987164 201.88604,377.564493 202.383379,377.506728 L202.5,377.5 L208.5,377.5 Z" fill="#000000" fill-rule="nonzero"></path>
        <path id="直线-2" d="M526.059137,370.436138 L526.164587,370.486398 L538.231484,377.116066 C538.876956,377.470694 538.921543,378.363188 538.355201,378.78903 L538.248915,378.85913 L526.317011,385.728786 C525.838385,386.00435 525.226993,385.839735 524.951429,385.361109 C524.695549,384.91667 524.81921,384.357755 525.221397,384.059546 L525.319107,383.995527 L533.943,379.03 L533.0052,379.039998 C532.452943,379.045521 532.000773,378.602305 531.99525,378.050047 C531.990122,377.537237 532.371917,377.110727 532.868653,377.047992 L532.985201,377.040098 L533.924,377.031 L525.201544,372.239266 C524.752077,371.992325 524.56752,371.450461 524.756372,370.986761 L524.806632,370.88131 C525.053573,370.431844 525.595437,370.247286 526.059137,370.436138 Z M442.989701,377.940053 C443.541958,377.93453 443.994127,378.377746 443.99965,378.930003 C444.004778,379.442814 443.622984,379.869324 443.126248,379.932059 L443.0097,379.939953 L437.01,379.99995 C436.457742,380.005473 436.005573,379.562257 436.00005,379.01 C435.994922,378.497189 436.376716,378.070679 436.873452,378.007944 L436.99,378.00005 L442.989701,377.940053 Z M454.989101,377.820059 C455.541358,377.814536 455.993527,378.257752 455.99905,378.810009 C456.004178,379.32282 455.622384,379.74933 455.125648,379.812065 L455.0091,379.819959 L449.0094,379.879956 C448.457142,379.885479 448.004973,379.442263 447.99945,378.890005 C447.994322,378.377195 448.376116,377.950685 448.872853,377.88795 L448.989401,377.880056 L454.989101,377.820059 Z M466.988501,377.700065 C467.540758,377.694542 467.992928,378.137758 467.99845,378.690015 C468.003578,379.202826 467.621784,379.629336 467.125048,379.692071 L467.0085,379.699965 L461.0088,379.759962 C460.456542,379.765485 460.004373,379.322269 459.99885,378.770011 C459.993722,378.257201 460.375516,377.830691 460.872253,377.767956 L460.988801,377.760062 L466.988501,377.700065 Z M478.987901,377.580071 C479.540158,377.574548 479.992328,378.017764 479.99785,378.570021 C480.002978,379.082832 479.621184,379.509342 479.124448,379.572077 L479.0079,379.579971 L473.0082,379.639968 C472.455942,379.645491 472.003773,379.202275 471.99825,378.650017 C471.993122,378.137207 472.374916,377.710697 472.871653,377.647962 L472.988201,377.640068 L478.987901,377.580071 Z M490.987301,377.460077 C491.539558,377.454554 491.991728,377.89777 491.99725,378.450027 C492.002378,378.962838 491.620584,379.389348 491.123848,379.452083 L491.0073,379.459977 L485.0076,379.519974 C484.455343,379.525497 484.003173,379.082281 483.99765,378.530023 C483.992522,378.017213 484.374316,377.590703 484.871053,377.527968 L484.987601,377.520074 L490.987301,377.460077 Z M502.986701,377.340083 C503.538958,377.33456 503.991128,377.777776 503.99665,378.330033 C504.001778,378.842844 503.619984,379.269354 503.123248,379.332089 L503.0067,379.339983 L497.007,379.39998 C496.454743,379.405503 496.002573,378.962287 495.99705,378.410029 C495.991922,377.897219 496.373717,377.470709 496.870453,377.407974 L496.987001,377.40008 L502.986701,377.340083 Z M514.986101,377.220089 C515.538358,377.214566 515.990528,377.657782 515.99605,378.210039 C516.001178,378.72285 515.619384,379.14936 515.122648,379.212095 L515.0061,379.219989 L509.0064,379.279986 C508.454143,379.285509 508.001973,378.842293 507.99645,378.290035 C507.991322,377.777225 508.373117,377.350715 508.869853,377.28798 L508.986401,377.280086 L514.986101,377.220089 Z M526.985501,377.100095 C527.537758,377.094572 527.989928,377.537788 527.99545,378.090045 C528.000578,378.602856 527.618784,379.029366 527.122048,379.092101 L527.0055,379.099995 L525.774791,379.112302 L521.0058,379.159992 C520.453543,379.165515 520.001373,378.722299 519.99585,378.170041 C519.990722,377.657231 520.372517,377.230721 520.869253,377.167986 L520.985801,377.160092 L525.754792,377.112402 L526.985501,377.100095 Z" fill="#000000" fill-rule="nonzero"></path>
        <path id="直线-2" d="M286.121576,371.759739 C286.372999,372.206714 286.243755,372.764364 285.838607,373.058537 L285.740261,373.121576 L277.065,378 L280,378 C280.552285,378 281,378.447715 281,379 C281,379.512836 280.61396,379.935507 280.116621,379.993272 L280,380 L277.068,380 L285.740261,384.878424 C286.187236,385.129848 286.366366,385.673531 286.172887,386.135319 L286.121576,386.240261 C285.870152,386.687236 285.326469,386.866366 284.864681,386.672887 L284.759739,386.621576 L272.759739,379.871576 C272.117846,379.510511 272.082185,378.617615 272.652757,378.197458 L272.759739,378.128424 L284.759739,371.378424 C285.241097,371.107661 285.850812,371.278381 286.121576,371.759739 Z M376.135319,371.327113 L376.240261,371.378424 L388.240261,378.128424 C388.882154,378.489489 388.917815,379.382385 388.347243,379.802542 L388.240261,379.871576 L376.240261,386.621576 C375.758903,386.892339 375.149188,386.721619 374.878424,386.240261 C374.627001,385.793286 374.756245,385.235636 375.161393,384.941463 L375.259739,384.878424 L383.931,380 L382,380 C381.447715,380 381,379.552285 381,379 C381,378.487164 381.38604,378.064493 381.883379,378.006728 L382,378 L383.934,378 L375.259739,373.121576 C374.812764,372.870152 374.633634,372.326469 374.827113,371.864681 L374.878424,371.759739 C375.129848,371.312764 375.673531,371.133634 376.135319,371.327113 Z M292,378 C292.552285,378 293,378.447715 293,379 C293,379.512836 292.61396,379.935507 292.116621,379.993272 L292,380 L286,380 C285.447715,380 285,379.552285 285,379 C285,378.487164 285.38604,378.064493 285.883379,378.006728 L286,378 L292,378 Z M304,378 C304.552285,378 305,378.447715 305,379 C305,379.512836 304.61396,379.935507 304.116621,379.993272 L304,380 L298,380 C297.447715,380 297,379.552285 297,379 C297,378.487164 297.38604,378.064493 297.883379,378.006728 L298,378 L304,378 Z M316,378 C316.552285,378 317,378.447715 317,379 C317,379.512836 316.61396,379.935507 316.116621,379.993272 L316,380 L310,380 C309.447715,380 309,379.552285 309,379 C309,378.487164 309.38604,378.064493 309.883379,378.006728 L310,378 L316,378 Z M328,378 C328.552285,378 329,378.447715 329,379 C329,379.512836 328.61396,379.935507 328.116621,379.993272 L328,380 L322,380 C321.447715,380 321,379.552285 321,379 C321,378.487164 321.38604,378.064493 321.883379,378.006728 L322,378 L328,378 Z M340,378 C340.552285,378 341,378.447715 341,379 C341,379.512836 340.61396,379.935507 340.116621,379.993272 L340,380 L334,380 C333.447715,380 333,379.552285 333,379 C333,378.487164 333.38604,378.064493 333.883379,378.006728 L334,378 L340,378 Z M352,378 C352.552285,378 353,378.447715 353,379 C353,379.512836 352.61396,379.935507 352.116621,379.993272 L352,380 L346,380 C345.447715,380 345,379.552285 345,379 C345,378.487164 345.38604,378.064493 345.883379,378.006728 L346,378 L352,378 Z M364,378 C364.552285,378 365,378.447715 365,379 C365,379.512836 364.61396,379.935507 364.116621,379.993272 L364,380 L358,380 C357.447715,380 357,379.552285 357,379 C357,378.487164 357.38604,378.064493 357.883379,378.006728 L358,378 L364,378 Z M376,378 C376.552285,378 377,378.447715 377,379 C377,379.512836 376.61396,379.935507 376.116621,379.993272 L376,380 L370,380 C369.447715,380 369,379.552285 369,379 C369,378.487164 369.38604,378.064493 369.883379,378.006728 L370,378 L376,378 Z" fill="#000000" fill-rule="nonzero"></path>
    </g>
</svg>