<?xml version="1.0" standalone="no"?><!DOCTYPE svg PUBLIC "-//W3C//DTD SVG 1.1//EN" "http://www.w3.org/Graphics/SVG/1.1/DTD/svg11.dtd"><svg class="icon" width="200px" height="200.00px" viewBox="0 0 1024 1024" version="1.1" xmlns="http://www.w3.org/2000/svg"><path d="M597.12 149.12V192a14.08 14.08 0 0 0 14.72 14.08H768L496.64 476.8a14.72 14.72 0 0 0 0 19.84l30.72 30.72a14.72 14.72 0 0 0 19.84 0L817.92 256v156.16a14.08 14.08 0 0 0 14.08 14.72h42.88a14.08 14.08 0 0 0 14.08-14.72V192a56.96 56.96 0 0 0-56.96-56.96H611.84a14.08 14.08 0 0 0-14.72 14.08z" fill="#0593d3" /><path d="M817.92 817.92H206.08V206.08h234.88A14.08 14.08 0 0 0 455.04 192v-42.88a14.08 14.08 0 0 0-14.08-14.08H192a56.96 56.96 0 0 0-56.96 56.96v640a56.96 56.96 0 0 0 56.96 56.96h640a56.96 56.96 0 0 0 56.96-56.96V583.04a14.08 14.08 0 0 0-14.08-14.08H832a14.08 14.08 0 0 0-14.08 14.08z" fill="#0593d3" /></svg>