<?xml version="1.0" standalone="no"?><!DOCTYPE svg PUBLIC "-//W3C//DTD SVG 1.1//EN" "http://www.w3.org/Graphics/SVG/1.1/DTD/svg11.dtd"><svg class="icon" width="200px" height="200.00px" viewBox="0 0 1024 1024" version="1.1" xmlns="http://www.w3.org/2000/svg"><path d="M374.480537 810.200534A142.698713 142.698713 0 0 1 273.464433 566.568585l117.258234-117.258235a142.947317 142.947317 0 0 1 201.949341 0 24.860403 24.860403 0 1 1-35.136036 35.136037 93.309379 93.309379 0 0 0-131.677268 0L308.683337 601.704621a93.060775 93.060775 0 1 0 131.5944 131.5944l58.670551-58.587683a24.860403 24.860403 0 1 1 35.136037 35.136036l-58.587683 58.670551a142.781581 142.781581 0 0 1-101.016105 41.682609z" fill="#0593d3" /><path d="M374.480537 810.200534A142.698713 142.698713 0 0 1 273.464433 566.568585l117.258234-117.258235a24.860403 24.860403 0 0 1 35.136037 35.136037L308.683337 601.704621a93.060775 93.060775 0 1 0 131.5944 131.5944l58.670551-58.587683a24.860403 24.860403 0 1 1 35.136037 35.136036l-58.587683 58.670551a142.781581 142.781581 0 0 1-101.016105 41.682609zM615.626447 581.899166a24.860403 24.860403 0 0 1-17.568019-42.428421L715.316663 422.626851a93.143643 93.143643 0 0 0-131.677268-132.00874l-58.587683 58.587683a24.860403 24.860403 0 0 1-35.136037-35.136036l58.587683-58.587683A142.781581 142.781581 0 0 1 750.452699 457.431415L633.277333 574.606782a24.860403 24.860403 0 0 1-17.650886 7.292384z" fill="#0593d3" /><path d="M532.261228 616.372259a142.118637 142.118637 0 0 1-100.933236-41.434005 24.860403 24.860403 0 1 1 35.136036-35.136037 93.143643 93.143643 0 0 0 131.5944 0L715.316663 422.626851a93.143643 93.143643 0 0 0-131.677268-132.00874l-58.587683 58.587683a24.860403 24.860403 0 0 1-35.136037-35.136036l58.587683-58.587683A142.781581 142.781581 0 0 1 750.452699 457.431415L633.277333 574.606782a142.450109 142.450109 0 0 1-101.016105 41.765477z" fill="#0593d3" /></svg>